<svg width="46" height="42" viewBox="0 0 46 42" fill="none" xmlns="http://www.w3.org/2000/svg">
<g id="asana-logo" clip-path="url(#clip0_545_1950)">
<path id="Vector" d="M35.3311 22.2349C29.9074 22.2349 25.5113 26.6587 25.5113 32.1157C25.5113 37.5733 29.9074 41.998 35.3311 41.998C40.754 41.998 45.15 37.5733 45.15 32.1157C45.15 26.6587 40.754 22.2349 35.3311 22.2349ZM9.81935 22.2354C4.39648 22.2359 0 26.6587 0 32.1162C0 37.5733 4.39648 41.9975 9.81935 41.9975C15.2426 41.9975 19.6392 37.5733 19.6392 32.1162C19.6392 26.6587 15.2426 22.2354 9.81887 22.2354H9.81935ZM32.3944 9.88326C32.3944 15.3403 27.9984 19.7655 22.5755 19.7655C17.1517 19.7655 12.7557 15.3403 12.7557 9.88326C12.7557 4.42618 17.1517 0.00195312 22.5755 0.00195312C27.9983 0.00195312 32.3939 4.42618 32.3939 9.88326H32.3944Z" fill="url(#paint0_radial_545_1950)"/>
</g>
<defs>
<radialGradient id="paint0_radial_545_1950" cx="0" cy="0" r="1" gradientUnits="userSpaceOnUse" gradientTransform="translate(22.5811 22.9799) scale(29.9345 27.8434)">
<stop stop-color="#FFB900"/>
<stop offset="0.6" stop-color="#F95D8F"/>
<stop offset="0.999" stop-color="#F95353"/>
</radialGradient>
<clipPath id="clip0_545_1950">
<rect width="45.15" height="42" fill="white"/>
</clipPath>
</defs>
</svg>
