<svg width="28" height="42" viewBox="0 0 28 42" fill="none" xmlns="http://www.w3.org/2000/svg">
<g id="Logo ">
<path id="Icon" d="M7.0002 42.0001C10.8643 42.0001 14.0004 38.864 14.0004 35V28H7.0002C3.13612 28 0 31.136 0 35C0 38.864 3.13612 42.0001 7.0002 42.0001Z" fill="#0ACF83"/>
<path id="Icon_2" d="M0 21C0 17.136 3.13612 14 7.0002 14H14.0004V27.9999H7.0002C3.13612 28.0001 0 24.864 0 21Z" fill="#A259FF"/>
<path id="Icon_3" d="M0 7.00003C0 3.13605 3.13612 0 7.0002 0H14.0004V13.9999H7.0002C3.13612 13.9999 0 10.864 0 7.00003Z" fill="#F24E1E"/>
<path id="Icon_4" d="M13.9961 0H20.9963C24.8604 0 27.9965 3.13605 27.9965 7.00003C27.9965 10.864 24.8604 13.9999 20.9963 13.9999H13.9961V0Z" fill="#FF7262"/>
<path id="Icon_5" d="M27.9965 21C27.9965 24.864 24.8604 28.0001 20.9963 28.0001C17.1322 28.0001 13.9961 24.864 13.9961 21C13.9961 17.136 17.1322 14 20.9963 14C24.8604 14 27.9965 17.136 27.9965 21Z" fill="#1ABCFE"/>
</g>
</svg>
