<svg width="47" height="42" viewBox="0 0 47 42" fill="none" xmlns="http://www.w3.org/2000/svg">
<g id="new-logo-drive-google" clip-path="url(#clip0_545_1958)">
<path id="Vector" d="M32.1212 28.457H14.9258L7.5625 41.2448C8.44832 41.6926 9.45425 41.9797 10.1049 41.9797C16.8691 41.9797 30.6739 41.8802 37.5267 41.8802C38.2314 41.8802 38.891 41.6413 39.4825 41.2672L32.1212 28.457Z" fill="#4185F3"/>
<path id="Vector_2" d="M7.56544 41.2457L14.9288 28.458H0.00794265C0.000435703 29.3467 0.31823 30.1597 0.816191 31.0872C2.20347 33.6676 4.55065 37.7926 5.92942 39.9471C6.26924 40.478 7.61849 41.2726 7.56544 41.2457Z" fill="#1767D1"/>
<path id="Vector_3" d="M32.125 28.4571L39.4888 41.2652C40.4432 40.6621 41.2209 39.7068 41.7259 38.8271C42.8659 36.8432 44.7937 33.5398 46.1235 31.3032C46.7415 30.2633 46.9818 29.3293 46.9667 28.4561L32.125 28.4571Z" fill="#E94235"/>
<path id="Vector_4" d="M14.9287 28.4584L23.5177 13.6127L15.8416 0.888672C15.0113 1.43153 14.3012 2.16844 13.9789 2.72971C10.6283 8.57226 3.87851 20.5465 0.484366 26.4646C0.136573 27.0702 -0.0299442 27.7619 0.00442166 28.4584H14.9287Z" fill="#30A753"/>
<path id="Vector_5" d="M32.124 28.4587L23.5195 13.6129L30.9849 0.90332C31.8152 1.44667 32.7266 2.16866 33.0489 2.73042C36.3995 8.57248 43.1492 20.5467 46.5448 26.4649C46.8952 27.0734 47.0008 27.762 46.9667 28.4587H32.124Z" fill="#F9BC00"/>
<path id="Vector_6" d="M15.8398 0.890391L23.517 13.6124L30.9824 0.90283C30.2116 0.455011 29.1201 0.189802 28.0632 0.156464C25.1224 0.058939 20.355 0.0196304 17.7891 0.13059C17.1566 0.157957 15.8479 0.884917 15.8398 0.890391Z" fill="#0F8038"/>
</g>
<defs>
<clipPath id="clip0_545_1958">
<rect width="47" height="42" fill="white"/>
</clipPath>
</defs>
</svg>
