<svg width="70" height="29" viewBox="0 0 70 29" fill="none" xmlns="http://www.w3.org/2000/svg">
<path d="M5.84 23.36C4.74 23.36 3.77 23.17 2.93 22.79C2.11 22.39 1.47 21.85 1.01 21.17C0.55 20.47 0.32 19.65 0.32 18.71C0.32 17.83 0.51 17.04 0.89 16.34C1.29 15.64 1.9 15.05 2.72 14.57C3.54 14.09 4.57 13.75 5.81 13.55L11.45 12.62V15.29L6.47 16.16C5.57 16.32 4.91 16.61 4.49 17.03C4.07 17.43 3.86 17.95 3.86 18.59C3.86 19.21 4.09 19.72 4.55 20.12C5.03 20.5 5.64 20.69 6.38 20.69C7.3 20.69 8.1 20.49 8.78 20.09C9.48 19.69 10.02 19.16 10.4 18.5C10.78 17.82 10.97 17.07 10.97 16.25V12.08C10.97 11.28 10.67 10.63 10.07 10.13C9.49 9.61 8.71 9.35 7.73 9.35C6.83 9.35 6.04 9.59 5.36 10.07C4.7 10.53 4.21 11.13 3.89 11.87L1.07 10.46C1.37 9.66 1.86 8.96 2.54 8.36C3.22 7.74 4.01 7.26 4.91 6.92C5.83 6.58 6.8 6.41 7.82 6.41C9.1 6.41 10.23 6.65 11.21 7.13C12.21 7.61 12.98 8.28 13.52 9.14C14.08 9.98 14.36 10.96 14.36 12.08V23H11.12V20.06L11.81 20.15C11.43 20.81 10.94 21.38 10.34 21.86C9.76 22.34 9.09 22.71 8.33 22.97C7.59 23.23 6.76 23.36 5.84 23.36ZM18.3237 29V6.77H21.5638V10.13L21.1738 9.35C21.7738 8.43 22.5738 7.71 23.5738 7.19C24.5738 6.67 25.7138 6.41 26.9938 6.41C28.5338 6.41 29.9138 6.78 31.1338 7.52C32.3738 8.26 33.3438 9.27 34.0438 10.55C34.7638 11.83 35.1238 13.27 35.1238 14.87C35.1238 16.47 34.7638 17.91 34.0438 19.19C33.3438 20.47 32.3838 21.49 31.1638 22.25C29.9438 22.99 28.5538 23.36 26.9938 23.36C25.7338 23.36 24.5838 23.1 23.5438 22.58C22.5238 22.06 21.7338 21.31 21.1738 20.33L21.7138 19.7V29H18.3237ZM26.6638 20.21C27.6238 20.21 28.4738 19.98 29.2138 19.52C29.9538 19.06 30.5338 18.43 30.9538 17.63C31.3938 16.81 31.6138 15.89 31.6138 14.87C31.6138 13.85 31.3938 12.94 30.9538 12.14C30.5338 11.34 29.9538 10.71 29.2138 10.25C28.4738 9.79 27.6238 9.56 26.6638 9.56C25.7238 9.56 24.8738 9.79 24.1138 10.25C23.3738 10.71 22.7838 11.34 22.3438 12.14C21.9238 12.94 21.7138 13.85 21.7138 14.87C21.7138 15.89 21.9238 16.81 22.3438 17.63C22.7838 18.43 23.3738 19.06 24.1138 19.52C24.8738 19.98 25.7238 20.21 26.6638 20.21ZM38.4214 23V0.289999H41.8114V23H38.4214ZM45.7749 23V6.77H49.1649V23H45.7749ZM45.7749 4.55V0.649998H49.1649V4.55H45.7749ZM60.9584 23.36C59.3984 23.36 57.9684 22.99 56.6684 22.25C55.3884 21.51 54.3684 20.5 53.6084 19.22C52.8484 17.94 52.4684 16.49 52.4684 14.87C52.4684 13.23 52.8484 11.78 53.6084 10.52C54.3684 9.24 55.3884 8.24 56.6684 7.52C57.9484 6.78 59.3784 6.41 60.9584 6.41C62.5584 6.41 63.9884 6.78 65.2484 7.52C66.5284 8.24 67.5384 9.24 68.2784 10.52C69.0384 11.78 69.4184 13.23 69.4184 14.87C69.4184 16.51 69.0384 17.97 68.2784 19.25C67.5184 20.53 66.4984 21.54 65.2184 22.28C63.9384 23 62.5184 23.36 60.9584 23.36ZM60.9584 20.21C61.9184 20.21 62.7684 19.98 63.5084 19.52C64.2484 19.06 64.8284 18.43 65.2484 17.63C65.6884 16.81 65.9084 15.89 65.9084 14.87C65.9084 13.85 65.6884 12.94 65.2484 12.14C64.8284 11.34 64.2484 10.71 63.5084 10.25C62.7684 9.79 61.9184 9.56 60.9584 9.56C60.0184 9.56 59.1684 9.79 58.4084 10.25C57.6684 10.71 57.0784 11.34 56.6384 12.14C56.2184 12.94 56.0084 13.85 56.0084 14.87C56.0084 15.89 56.2184 16.81 56.6384 17.63C57.0784 18.43 57.6684 19.06 58.4084 19.52C59.1684 19.98 60.0184 20.21 60.9584 20.21Z" fill="#18181B"/>
</svg>
