<svg width="41" height="42" viewBox="0 0 41 42" fill="none" xmlns="http://www.w3.org/2000/svg">
<g id="slack-new-logo" clip-path="url(#clip0_545_1971)">
<g id="Group">
<path id="Vector" fill-rule="evenodd" clip-rule="evenodd" d="M15.0324 0C12.766 0.00171254 10.9318 1.88208 10.9334 4.19914C10.9318 6.51621 12.7677 8.39658 15.0341 8.39829H19.1348V4.20086C19.1365 1.88379 17.3005 0.00342508 15.0324 0C15.0341 0 15.0341 0 15.0324 0ZM15.0324 11.2H4.10067C1.83425 11.2017 -0.00167053 13.0821 4.57787e-06 15.3991C-0.00334564 17.7162 1.83257 19.5966 4.099 19.6H15.0324C17.2989 19.5983 19.1348 17.7179 19.1331 15.4009C19.1348 13.0821 17.2989 11.2017 15.0324 11.2Z" fill="#36C5F0"/>
<path id="Vector_2" fill-rule="evenodd" clip-rule="evenodd" d="M41.0003 15.3991C41.002 13.0821 39.1661 11.2017 36.8996 11.2C34.6332 11.2017 32.7973 13.0821 32.799 15.3991V19.6H36.8996C39.1661 19.5983 41.002 17.7179 41.0003 15.3991ZM30.0669 15.3991V4.19914C30.0685 1.88379 28.2343 0.00342508 25.9679 0C23.7014 0.00171254 21.8655 1.88208 21.8672 4.19914V15.3991C21.8638 17.7162 23.6998 19.5966 25.9662 19.6C28.2326 19.5983 30.0685 17.7179 30.0669 15.3991Z" fill="#2EB67D"/>
<path id="Vector_3" fill-rule="evenodd" clip-rule="evenodd" d="M25.964 42.0001C28.2304 41.9984 30.0663 40.1181 30.0646 37.801C30.0663 35.4839 28.2304 33.6036 25.964 33.6019H21.8633V37.801C21.8616 40.1164 23.6975 41.9967 25.964 42.0001ZM25.964 30.7984H36.8974C39.1638 30.7967 40.9997 28.9164 40.9981 26.5993C41.0014 24.2822 39.1655 22.4019 36.8991 22.3984H25.9656C23.6992 22.4002 21.8633 24.2805 21.865 26.5976C21.8633 28.9164 23.6975 30.7967 25.964 30.7984Z" fill="#ECB22E"/>
<path id="Vector_4" fill-rule="evenodd" clip-rule="evenodd" d="M1.14538e-06 26.5995C-0.00167396 28.9166 1.83425 30.797 4.10067 30.7987C6.36709 30.797 8.20302 28.9166 8.20134 26.5995V22.4004H4.10067C1.83425 22.4021 -0.00167396 24.2825 1.14538e-06 26.5995ZM10.9334 26.5995V37.7995C10.9301 40.1166 12.766 41.997 15.0324 42.0004C17.2989 41.9987 19.1348 40.1183 19.1331 37.8013V26.603C19.1365 24.2859 17.3005 22.4055 15.0341 22.4021C12.766 22.4021 10.9318 24.2825 10.9334 26.5995Z" fill="#E01E5A"/>
</g>
</g>
<defs>
<clipPath id="clip0_545_1971">
<rect width="41" height="42" fill="white"/>
</clipPath>
</defs>
</svg>
