<svg width="44" height="40" viewBox="0 0 44 40" fill="none" xmlns="http://www.w3.org/2000/svg">
<path d="M33.1541 20.7772L33.1382 20.8134L33.1253 20.8508C32.9673 21.308 32.9143 21.7941 32.9706 22.2744L33.9638 22.1579L32.9706 22.2745C33.0248 22.736 33.1784 23.1795 33.4196 23.5763C33.5877 23.9441 34.3705 25.5562 35.8595 27.252C37.3133 28.9076 39.4877 30.6951 42.4646 31.4239C42.3011 31.5072 42.1021 31.5943 41.8633 31.683C41.0112 31.9997 39.7804 32.2906 38.1691 32.5308L38.1661 32.5313C37.4488 32.6404 37.1493 33.2447 37.0357 33.5195C36.9037 33.8387 36.8096 34.2454 36.725 34.6207L36.7249 34.6206L36.7229 34.6302C36.6759 34.8486 36.623 35.0657 36.5644 35.2814C36.3809 35.2663 36.1986 35.2397 36.0186 35.2019L36.0119 35.2005C35.1374 35.023 34.2469 34.9314 33.3537 34.927L33.3466 34.927C32.6983 34.9285 32.0511 34.9812 31.4115 35.0847L31.3717 35.0912L31.3326 35.1008C29.9518 35.4401 28.6653 36.0766 27.569 36.9651L27.5689 36.965L27.5617 36.971C26.0784 38.1964 24.2117 38.9121 22.2553 39C22.16 38.9995 22.0647 38.9962 21.9923 38.9926L21.9242 38.9893L21.8562 38.9953C21.8265 38.9979 21.7894 38.9996 21.744 38.9999C19.7893 38.9118 17.9245 38.1962 16.443 36.9713L16.4431 36.9713L16.435 36.9647C15.3372 36.076 14.0492 35.4396 12.6669 35.1007L12.6282 35.0912L12.5888 35.0848C11.9482 34.9809 11.3001 34.9282 10.6507 34.927V34.927L10.6385 34.9271C9.74383 34.9365 8.85241 35.0343 7.97805 35.2192L7.97803 35.2191L7.9668 35.2216C7.79191 35.2607 7.61476 35.2896 7.43632 35.3082C7.37749 35.0886 7.32745 34.8671 7.27609 34.634L7.27455 34.6272C7.18933 34.2528 7.09515 33.8456 6.96437 33.5272C6.85249 33.2547 6.55441 32.6451 5.83391 32.5355L5.83155 32.5352C4.21978 32.2939 2.98958 32.0029 2.13734 31.6858C1.89005 31.5938 1.68524 31.5035 1.51832 31.4173C4.09566 30.7703 6.40479 29.336 8.09361 27.3089C9.09339 26.1857 9.92742 24.9322 10.5711 23.5843C10.8149 23.1853 10.97 22.739 11.0245 22.2744C11.0808 21.7944 11.0281 21.3086 10.8706 20.8516L10.8576 20.8138L10.8415 20.7772C10.4917 19.9761 9.78468 19.4907 9.19074 19.1889C8.59498 18.8861 7.9449 18.6863 7.49445 18.5479L7.46459 18.5387L7.46184 18.5379C7.22153 18.4647 7.04391 18.4097 6.90927 18.3575L6.90378 18.3554C6.52333 18.2106 6.08658 18.0067 5.78354 17.7744C5.67903 17.6943 5.61731 17.6333 5.5814 17.5908C5.63813 17.5149 5.71003 17.4476 5.7953 17.3933L5.25796 16.5499L5.79531 17.3933C5.94186 17.2999 6.11838 17.2513 6.29977 17.2581L6.32879 17.2591L6.35783 17.2585C6.39562 17.2577 6.43252 17.2639 6.46636 17.2761C7.27179 17.67 8.15294 17.8934 9.05185 17.9326C9.74718 17.9778 10.4393 17.7734 10.9955 17.3518L11.4194 17.0306L11.39 16.4997C11.3663 16.0705 11.3396 15.6413 11.31 15.2121L11.3073 15.1736L11.3017 15.1354C10.9038 12.4313 11.0691 9.6777 11.7878 7.03633C12.6166 5.24132 13.969 3.71265 15.6856 2.64067C17.4248 1.55459 19.4589 0.986839 21.5338 1.01151L21.5458 1.01166L21.5577 1.01151L22.4421 1.00086L22.4426 1.00085C24.5215 0.974853 26.5598 1.54257 28.3029 2.62988C30.0232 3.70301 31.3788 5.23396 32.2099 7.03199C32.9276 9.67632 33.0914 12.4327 32.6918 15.1392L32.6857 15.1803L32.6831 15.2218L32.6743 15.3603L32.6742 15.3615L32.6038 16.4905L32.5707 17.0211L32.9921 17.3453C33.5063 17.741 34.1428 17.9463 34.7906 17.9316L34.8156 17.9311L34.8407 17.9292C35.6877 17.8674 36.5152 17.6467 37.2773 17.2786C37.3609 17.2462 37.4515 17.2297 37.5435 17.2309L37.5512 17.2311L37.5589 17.231C37.7026 17.2309 37.8444 17.2576 37.9761 17.3092L38.0243 17.3281L38.0742 17.3419L38.0896 17.3461L38.1097 17.3517L38.1301 17.3564C38.224 17.3782 38.3045 17.4256 38.3634 17.4875C38.3893 17.5148 38.4106 17.5443 38.4273 17.5751C38.4131 17.5938 38.3936 17.6169 38.3667 17.6446C38.2127 17.8028 37.8558 18.0638 37.0895 18.3555L37.0861 18.3568C36.9536 18.4078 36.7689 18.4663 36.5341 18.5371L36.5282 18.5389L36.4957 18.5489C36.0467 18.6872 35.3986 18.8868 34.8044 19.189C34.2108 19.4908 33.5039 19.9762 33.1541 20.7772ZM5.53424 17.5163C5.5349 17.5163 5.53695 17.5206 5.53843 17.529C5.53431 17.5205 5.53358 17.5163 5.53424 17.5163ZM38.4591 17.5246C38.4604 17.5191 38.4616 17.5164 38.4619 17.5164C38.4622 17.5164 38.4616 17.5191 38.4591 17.5246Z" fill="#FFEE59" stroke="#18181B" stroke-width="2"/>
</svg>
