<svg width="42" height="34" viewBox="0 0 42 34" fill="none" xmlns="http://www.w3.org/2000/svg">
<path id="Icon" d="M13.2128 34C29.0579 34 37.727 20.9178 37.727 9.57648C37.727 9.2087 37.7188 8.83275 37.7024 8.46498C39.3888 7.24992 40.8441 5.74489 42 4.02062C40.4294 4.71682 38.7619 5.1715 37.0543 5.36913C38.8522 4.29542 40.1984 2.60867 40.8434 0.621566C39.152 1.62024 37.3023 2.32472 35.3735 2.70481C34.074 1.32908 32.3557 0.418182 30.4844 0.112952C28.6132 -0.192279 26.6931 0.125155 25.021 1.01618C23.349 1.9072 22.0182 3.32218 21.2342 5.04235C20.4503 6.76253 20.257 8.69208 20.6842 10.5327C17.2594 10.3615 13.9089 9.47508 10.85 7.931C7.79105 6.38693 5.09196 4.21963 2.9277 1.56961C1.8277 3.45911 1.4911 5.69501 1.9863 7.82289C2.48151 9.95077 3.77136 11.811 5.59371 13.0254C4.2256 12.9821 2.88746 12.6151 1.68984 11.9548V12.061C1.68862 14.0439 2.37667 15.966 3.63704 17.5006C4.89741 19.0353 6.65232 20.0877 8.60344 20.479C7.3361 20.8244 6.00597 20.8748 4.71598 20.6261C5.26655 22.3314 6.33775 23.8229 7.7801 24.8924C9.22244 25.962 10.964 26.5562 12.7616 26.5922C9.70974 28.9806 5.93981 30.2761 2.05898 30.2699C1.37075 30.2689 0.683198 30.2269 0 30.1441C3.9425 32.664 8.52868 34.0024 13.2128 34Z" fill="#0C8BD9"/>
</svg>
