<svg width="33" height="40" viewBox="0 0 33 40" fill="none" xmlns="http://www.w3.org/2000/svg">
<path d="M21.206 23.5735C21.5308 23.9016 21.5308 24.4249 21.206 24.753C21.0436 24.917 20.8348 24.9951 20.6182 24.9951C20.4094 24.9951 20.1929 24.917 20.0305 24.753L15.9084 20.5897C15.7537 20.4335 15.6686 20.2226 15.6686 19.9961V10.826C15.6686 10.3652 16.0398 9.99024 16.4961 9.99024C16.9524 9.99024 17.3236 10.3652 17.3236 10.826V19.6446L21.206 23.5735ZM26.3954 33.3216V33.3294V39.1642C26.3954 39.6251 26.0241 40 25.5678 40C25.1116 40 24.7403 39.6251 24.7403 39.1642V34.4308C22.3119 35.8524 19.4968 36.6647 16.4884 36.6647C13.48 36.6647 10.6649 35.8524 8.23647 34.4308V39.1642C8.23647 39.6251 7.86524 40 7.40895 40C6.95266 40 6.58144 39.6251 6.58144 39.1642V33.3294V33.3216C2.59855 30.2753 0 25.4403 0 19.9961C0 14.5518 2.59855 9.71685 6.59691 6.67057V6.66276V0.835774C6.59691 0.374927 6.96813 0 7.42442 0C7.88071 0 8.25193 0.374927 8.25193 0.835774V5.56923C10.6803 4.14763 13.4954 3.33529 16.5039 3.33529C19.5123 3.33529 22.3197 4.14763 24.7481 5.56923V0.835774C24.7481 0.374927 25.1193 0 25.5756 0C26.0319 0 26.4031 0.374927 26.4031 0.835774V6.67057V6.67838C30.4092 9.72466 33 14.5597 33 20.0039C33 25.4482 30.4015 30.2753 26.3954 33.3216ZM31.345 19.9961C31.345 11.7243 24.6862 4.99902 16.4961 4.99902C8.30607 4.99902 1.64729 11.7243 1.64729 19.9961C1.64729 28.2679 8.30607 34.9932 16.4961 34.9932C24.6862 34.9932 31.345 28.2679 31.345 19.9961Z" fill="white"/>
</svg>
