<svg width="40" height="40" viewBox="0 0 40 40" fill="none" xmlns="http://www.w3.org/2000/svg">
<path d="M38.6253 16.1016C37.7895 15.3516 36.7272 14.9688 35.6102 15.0156C34.4933 15.0625 33.4622 15.5469 32.7124 16.3828L26.4948 23.2188C25.9793 21.3672 24.2765 20.0156 22.2613 20.0156H4.16325C1.88244 20 0 21.8672 0 24.1641V35.8281C0 38.1328 1.86682 40 4.16325 40H22.8783L38.9455 21.9688C40.4608 20.2656 40.3281 17.6328 38.6487 16.0859L38.6253 16.1016ZM37.6958 20.8672L22.1285 38.3359H4.16325C2.78071 38.3359 1.66374 37.2188 1.66374 35.8359V24.1641C1.66374 22.7812 2.78071 21.6641 4.16325 21.6641H22.2613C23.7766 21.6641 24.9951 22.8984 24.9951 24.3984C24.9951 25.75 23.9797 26.9141 22.6596 27.1016L13.2318 28.3359L13.4505 29.9844L22.9018 28.75C24.6046 28.5 25.9715 27.2812 26.487 25.7188L33.9856 17.4844C34.4386 16.9844 35.0557 16.7031 35.7352 16.6641C36.3835 16.6484 37.0553 16.8672 37.5552 17.3125C38.5706 18.2422 38.6565 19.8281 37.7348 20.8438L37.6958 20.8672ZM6.66276 12.6641V11.6641H8.3265V12.6641C8.3265 13.9453 9.37317 15 10.662 15H14.341C15.622 15 16.6764 13.9531 16.6764 12.6641C16.6764 11.5312 15.8563 10.5625 14.7237 10.3672L10.0059 9.58594C8.07655 9.26562 6.67057 7.60156 6.67057 5.65625C6.67057 3.45312 8.45148 1.67188 10.6698 1.67188H11.6696V0H13.3333V1.66406H14.3331C16.5358 1.66406 18.3324 3.44531 18.3324 5.64844V6.66406H16.6686V5.64844C16.6686 4.36719 15.622 3.32812 14.3331 3.32812H10.6542C9.37317 3.32812 8.31869 4.375 8.31869 5.64844C8.31869 6.78125 9.13884 7.75 10.2714 7.94531L14.9893 8.72656C16.9186 9.04688 18.3245 10.7109 18.3245 12.6562C18.3245 14.8594 16.5436 16.6562 14.3253 16.6562H13.3255V18.3203H11.6618V16.6562H10.662C8.4671 16.6641 6.66276 14.8828 6.66276 12.6641Z" fill="#18181B"/>
</svg>
