<svg width="33" height="40" viewBox="0 0 33 40" fill="none" xmlns="http://www.w3.org/2000/svg">
<path d="M23.1008 21.6605H9.89923C8.08179 21.6605 6.59691 23.153 6.59691 24.9971V28.3337C6.59691 30.17 8.07406 31.6703 9.89923 31.6703H23.1008C24.9182 31.6703 26.4031 30.1778 26.4031 28.3337V24.9971C26.3954 23.1608 24.9182 21.6605 23.1008 21.6605ZM24.7481 28.3337C24.7481 29.2557 24.0056 29.9981 23.1008 29.9981H9.89923C8.98664 29.9981 8.25193 29.2479 8.25193 28.3337V24.9971C8.25193 24.075 8.99438 23.3327 9.89923 23.3327H23.1008C24.0134 23.3327 24.7481 24.0828 24.7481 24.9971V28.3337ZM6.59691 15.8312C6.59691 15.3702 6.96813 14.9951 7.42442 14.9951H14.0213C14.4776 14.9951 14.8488 15.3702 14.8488 15.8312C14.8488 16.2923 14.4776 16.6673 14.0213 16.6673H7.42442C6.96813 16.6595 6.59691 16.2923 6.59691 15.8312ZM6.59691 9.15805C6.59691 8.69702 6.96813 8.32195 7.42442 8.32195H14.0213C14.4776 8.32195 14.8488 8.69702 14.8488 9.15805C14.8488 9.61908 14.4776 9.99415 14.0213 9.99415H7.42442C6.96813 9.99415 6.59691 9.61908 6.59691 9.15805ZM29.8524 8.97833L24.1062 3.17251C22.0799 1.12523 19.3886 1.35701e-05 16.5271 1.35701e-05H7.42442C3.33326 -0.00780045 0 3.36004 0 7.49366V32.4985C0 36.6322 3.33326 40 7.42442 40H25.5756C29.6667 40 33 36.6322 33 32.4985V16.6361C33 13.7449 31.8786 11.0178 29.8524 8.97833ZM28.6923 10.1504C29.5971 11.0647 30.2777 12.1508 30.7263 13.3229H22.2733C20.9121 13.3229 19.7985 12.1977 19.7985 10.8224V2.28952C20.9585 2.74274 22.0335 3.42256 22.9384 4.34461L28.6923 10.1504ZM31.345 32.4985C31.345 35.7179 28.7542 38.3356 25.5678 38.3356H7.42442C4.23811 38.3356 1.64729 35.7179 1.64729 32.4985V7.49366C1.64729 4.27428 4.23811 1.65659 7.42442 1.65659H16.5271C17.0762 1.65659 17.6175 1.7191 18.1512 1.81287V10.8224C18.1512 13.1198 19.9995 14.9873 22.2733 14.9873H31.1903C31.2831 15.5265 31.345 16.0735 31.345 16.6283V32.4985Z" fill="#18181B"/>
</svg>
