<svg width="40" height="40" viewBox="0 0 40 40" fill="none" xmlns="http://www.w3.org/2000/svg">
<path d="M20 33.3359C29.1875 33.3359 36.6641 25.8594 36.6641 16.6719C36.6641 7.48437 29.1875 0 20 0C10.8125 0 3.33594 7.47656 3.33594 16.6641C3.33594 25.8516 10.8125 33.3359 20 33.3359ZM20 1.66406C28.2734 1.66406 35 8.39062 35 16.6641C35 24.9375 28.2734 31.6641 20 31.6641C11.7266 31.6641 5 24.9375 5 16.6641C5 8.39062 11.7266 1.66406 20 1.66406ZM13.3359 12.7109C13.3359 10.2969 15.2969 8.33594 17.7109 8.33594H19.1641V5.83594C19.1641 5.375 19.5391 5 20 5C20.4609 5 20.8359 5.375 20.8359 5.83594V8.33594H22.3828C24.0156 8.33594 25.5312 9.21094 26.3516 10.625C26.5859 11.0234 26.4453 11.5312 26.0469 11.7656C25.6484 11.9922 25.1406 11.8594 24.9062 11.4609C24.3828 10.5625 23.4141 10 22.3828 10H17.7188C16.2266 10 15.0078 11.2188 15.0078 12.7109C15.0078 14.0469 15.9688 15.1797 17.2891 15.3828L22.9922 16.3047C25.125 16.6484 26.6719 18.4609 26.6719 20.625C26.6719 23.0391 24.7109 25 22.2969 25H20.8438V27.5C20.8438 27.9609 20.4688 28.3359 20.0078 28.3359C19.5469 28.3359 19.1719 27.9609 19.1719 27.5V25H17.625C15.9922 25 14.4766 24.125 13.6562 22.7109C13.4219 22.3125 13.5625 21.8047 13.9609 21.5703C14.3594 21.3359 14.8672 21.4766 15.1016 21.875C15.625 22.7734 16.5938 23.3359 17.625 23.3359H22.2891C23.7812 23.3359 25 22.1172 25 20.625C25 19.2891 24.0391 18.1562 22.7188 17.9531L17.0156 17.0312C14.8828 16.6875 13.3359 14.875 13.3359 12.7109ZM40 35C40 37.7578 37.7578 40 35 40H5C2.24219 40 0 37.7578 0 35C0 32.2422 2.24219 30 5 30H5.83594C6.29688 30 6.67188 30.375 6.67188 30.8359C6.67188 31.2969 6.29688 31.6719 5.83594 31.6719H5C3.16406 31.6719 1.66406 33.1641 1.66406 35.0078C1.66406 36.8438 3.15625 38.3438 5 38.3438H35C36.8359 38.3438 38.3359 36.8516 38.3359 35.0078C38.3359 33.1719 36.8438 31.6719 35 31.6719H34.1641C33.7031 31.6719 33.3281 31.2969 33.3281 30.8359C33.3281 30.375 33.7031 30 34.1641 30H35C37.7578 30 40 32.2422 40 35Z" fill="white"/>
</svg>
