<svg width="40" height="40" viewBox="0 0 40 40" fill="none" xmlns="http://www.w3.org/2000/svg">
<path d="M28.3359 0C21.7969 0 16.6719 2.92969 16.6719 6.66406V13.9609C15.1641 13.5625 13.4766 13.3281 11.6719 13.3281C5.125 13.3359 0 16.2578 0 20V33.3359C0 37.0703 5.125 40 11.6641 40C18.2031 40 23.3281 37.0703 23.3281 33.3359V32.6953C24.8828 33.1094 26.5859 33.3359 28.3281 33.3359C34.8672 33.3359 39.9922 30.4062 39.9922 26.6719V6.67188C40 2.92969 34.875 0 28.3359 0ZM38.3359 20C38.3359 22.7109 33.7578 25 28.3359 25C26.5703 25 24.8594 24.75 23.3359 24.2969V20C23.3359 19.7812 23.3125 19.5703 23.2812 19.3516C24.8438 19.7734 26.5625 20 28.3359 20C32.6406 20 36.3125 18.7266 38.3359 16.7969V20ZM1.66406 23.4688C3.6875 25.3984 7.35938 26.6719 11.6641 26.6719C15.9688 26.6719 19.6406 25.3984 21.6641 23.4688V26.6719C21.6641 29.3828 17.0859 31.6719 11.6641 31.6719C6.24219 31.6719 1.66406 29.3828 1.66406 26.6719V23.4688ZM28.3359 1.66406C33.7578 1.66406 38.3359 3.95313 38.3359 6.66406C38.3359 9.375 33.7578 11.6641 28.3359 11.6641C22.9141 11.6641 18.3359 9.375 18.3359 6.66406C18.3359 3.95313 22.9141 1.66406 28.3359 1.66406ZM18.3359 10.1328C20.3594 12.0625 24.0313 13.3359 28.3359 13.3359C32.6406 13.3359 36.3125 12.0625 38.3359 10.1328V13.3359C38.3359 16.0469 33.7578 18.3359 28.3359 18.3359C26.1719 18.3359 24.1172 17.9844 22.375 17.3125C21.5078 16.1641 20.1094 15.1953 18.3359 14.5V10.1328ZM11.6641 15C17.0859 15 21.6641 17.2891 21.6641 20C21.6641 22.7109 17.0859 25 11.6641 25C6.24219 25 1.66406 22.7109 1.66406 20C1.66406 17.2891 6.25 15 11.6641 15ZM11.6641 38.3359C6.24219 38.3359 1.66406 36.0469 1.66406 33.3359V30.1328C3.6875 32.0625 7.35938 33.3359 11.6641 33.3359C15.9688 33.3359 19.6406 32.0625 21.6641 30.1328V33.3359C21.6641 36.0469 17.0859 38.3359 11.6641 38.3359ZM28.3359 31.6641C26.5781 31.6641 24.8594 31.4141 23.3359 30.9609V26.0234C24.8906 26.4375 26.5938 26.6641 28.3359 26.6641C32.6406 26.6641 36.3125 25.3906 38.3359 23.4609V26.6641C38.3359 29.375 33.75 31.6641 28.3359 31.6641Z" fill="white"/>
</svg>
