<svg width="137" height="35" viewBox="0 0 137 35" fill="none" xmlns="http://www.w3.org/2000/svg">
<g id="Frame" clip-path="url(#clip0_9_305)">
<path id="Vector" d="M87.5149 14.5436C86.8781 14.2561 85.9554 14.0535 85.1626 14.047C84.4023 14.0601 83.6616 14.2234 82.9923 14.4913C82.7389 14.5697 82.141 14.9813 82.115 15.0009C81.0819 15.8045 80.5425 17.072 80.4906 18.6205C80.4906 18.6727 80.4516 19.6658 80.4516 19.7181V27.996H77.9823V19.5025C77.9693 19.0451 78.0083 18.5355 78.0148 17.9671C78.0733 15.9548 78.918 14.243 80.588 13.0474C81.5757 12.3352 82.6544 11.9563 83.785 11.7929C83.993 11.7537 84.9092 11.6949 85.1366 11.6949C85.3965 11.6949 85.65 11.6949 85.9099 11.708C86.6896 11.7472 87.4174 11.891 88.0802 12.1262L87.5149 14.5436ZM119.102 20.5348V12.0412H116.632V20.3192C116.632 20.3649 116.593 21.3645 116.593 21.4168C116.561 22.3642 116.294 23.9126 115.144 24.8861C115.047 24.971 114.676 25.3238 114.111 25.5329C113.422 25.8139 112.682 25.9837 111.889 25.9903C111.103 25.9837 110.355 25.8139 109.667 25.5329C109.108 25.3173 108.731 24.971 108.633 24.8861C107.483 23.9126 107.217 22.3642 107.184 21.4168C107.184 21.3645 107.152 20.3714 107.145 20.3192V12.0347H104.676V20.5282C104.67 20.6655 104.702 21.9852 104.702 22.0636C104.748 23.6447 105.287 25.0429 106.327 26.1536C107.47 27.4342 109.147 28.2182 111.148 28.3227C111.408 28.3358 111.622 28.3423 111.876 28.3423C112.136 28.3423 112.344 28.3358 112.604 28.3227C114.605 28.2182 116.281 27.4342 117.425 26.1536C118.465 25.0429 119.004 23.6513 119.05 22.0636C119.076 21.9852 119.108 20.6655 119.102 20.5348ZM134.164 20.0513C134.164 23.3442 131.688 26.0099 128.485 26.0099C125.093 26.0099 122.805 23.3442 122.805 20.0513C122.805 16.7584 125.093 13.8771 128.485 14.0927C131.831 14.0927 134.164 16.7584 134.164 20.0513ZM136.692 20.0186C136.763 15.602 133.482 11.7015 128.283 11.7015C122.955 11.9628 120.486 15.9352 120.486 20.0186V34.7974H122.955V26.2255C124.267 27.5322 126.1 28.375 128.452 28.3358C133.527 28.4534 136.887 24.2001 136.692 20.0186ZM95.2995 14.0666C91.8945 14.0143 89.4903 16.7323 89.4903 20.0186C89.4903 23.305 91.875 25.9707 95.2995 25.9707C98.8279 25.9707 101.083 23.305 101.083 20.0186C101.083 16.7323 98.8799 14.0862 95.2995 14.0666ZM95.2995 28.3358C90.5169 28.3358 86.9171 24.6117 86.9171 20.0186C86.9171 15.4256 90.5364 11.6296 95.2995 11.7015C100.296 11.7211 103.682 15.4256 103.682 20.0186C103.682 24.6117 100.225 28.3358 95.2995 28.3358ZM76.0069 26.6893C75.968 25.4545 75.9939 19.9664 76.0004 19.3392C76.0199 17.8299 73.5052 23.9061 73.5442 24.9122C73.5637 25.5329 73.5572 26.2451 73.5442 27.0552C73.4922 30.4396 71.3609 32.7067 67.6895 32.7067C67.0267 32.7198 66.3249 32.6479 65.6232 32.4911C64.3431 32.2036 63.0889 31.5437 62.0298 30.8839L62.0168 30.8969C61.5164 31.8312 60.9446 32.8831 60.9446 32.8831C62.6601 34.0787 64.6615 35 67.9884 34.9934C71.9847 35 76.1694 32.38 76.0069 26.6893Z" fill="#949494"/>
<path id="Vector_2" d="M26.6677 14.5436C26.0309 14.2561 25.1082 14.0536 24.3155 14.047C23.5552 14.0601 22.8144 14.2234 22.1451 14.4913C21.8917 14.5697 21.2939 14.9813 21.2679 15.0009C20.2347 15.8046 19.6954 17.0721 19.6434 18.6205C19.6434 18.6728 19.6044 19.6659 19.6044 19.7181V27.9961H17.1352V19.5025C17.1222 19.0452 17.1612 18.5356 17.1677 17.9671C17.2262 15.9548 18.0774 14.243 19.7474 13.0474C20.7351 12.3353 21.8137 11.9563 22.9444 11.793C23.1523 11.7538 24.0685 11.695 24.296 11.695C24.5559 11.695 24.8093 11.695 25.0692 11.708C25.8425 11.7472 26.5768 11.891 27.2396 12.1262L26.6677 14.5436ZM58.7613 19.5025V27.9961H56.292V19.7181C56.292 19.6724 56.2531 18.6728 56.2531 18.6205C56.2206 17.6731 55.9541 16.1247 54.804 15.1512C54.7065 15.0663 54.3362 14.7135 53.7708 14.5044C53.082 14.2234 52.3413 14.0536 51.5485 14.047C50.7558 14.0536 50.015 14.2234 49.3262 14.5044C48.7674 14.72 48.3905 15.0663 48.2995 15.1512C47.1494 16.1312 46.883 17.6731 46.8505 18.6205C46.8505 18.6728 46.818 19.6659 46.8115 19.7181V27.9961H44.3423V19.5025C44.3358 19.3653 44.3747 18.0455 44.3747 17.9671C44.4202 16.386 44.9596 14.9879 45.9992 13.8837C47.1429 12.6031 48.8194 11.8191 50.8207 11.7146C51.0807 11.7015 51.2951 11.695 51.5485 11.7015C51.8019 11.7015 52.0164 11.7015 52.2763 11.7146C54.2777 11.8191 55.9542 12.6031 57.0978 13.8837C58.1375 14.9944 58.6768 16.386 58.7223 17.9671C58.7353 18.0455 58.7678 19.3653 58.7613 19.5025ZM73.6742 19.9664C73.6742 23.2593 71.3869 26.1406 67.9949 25.925C64.6485 25.925 62.3157 23.2593 62.3157 19.9664C62.3157 16.6735 64.7914 14.0078 67.9949 14.0078C71.3869 14.0078 73.6742 16.6735 73.6742 19.9664ZM76.0004 0H73.5312V13.7922C72.2186 12.4855 70.3862 11.6427 68.0339 11.6819C62.959 11.5643 59.5995 15.8176 59.7945 19.9991C59.723 24.4157 63.0045 28.3162 68.2029 28.3162C73.4207 28.0614 75.8965 24.2393 75.9939 20.2473H76.0004C76.0004 20.2539 76.0004 0 76.0004 0ZM37.7078 14.8507C36.6941 14.1842 35.7194 14.0209 34.3484 14.0209C31.1448 14.0209 28.6691 16.6866 28.6691 19.9795C28.6691 23.2724 31.0019 25.938 34.3484 25.938C37.7403 26.1536 39.9821 23.2724 40.0276 19.9795C40.0536 17.6862 39.2478 15.8568 37.7078 14.8507ZM42.3539 28.0026H39.8846V26.2124C38.6175 27.4211 36.8566 28.2248 34.5563 28.3358C29.3644 28.3358 26.0764 24.4353 26.1479 20.0187C25.953 15.8372 29.3124 11.5839 34.3873 11.7015C39.6832 11.6035 42.4578 15.3929 42.3539 20.0187C42.3474 20.1036 42.3539 28.0026 42.3539 28.0026ZM13.6783 19.9795C13.6783 23.2724 11.3455 25.938 7.99902 25.938C4.60707 26.1536 2.31978 23.2724 2.31978 19.9795C2.31978 16.6866 4.60707 14.0209 7.99902 14.0209C11.2025 14.0209 13.6783 16.6931 13.6783 19.9795ZM7.96653 11.7015C5.61426 11.6558 3.78183 12.5051 2.46923 13.8118V0.026134H0V20.0187C0 24.1021 2.46923 28.0745 7.79758 28.3358C12.996 28.3358 16.2775 24.4353 16.206 20.0187C16.4009 15.8372 13.0415 11.5839 7.96653 11.7015Z" fill="#18181B"/>
</g>
<defs>
<clipPath id="clip0_9_305">
<rect width="136.698" height="35" fill="white"/>
</clipPath>
</defs>
</svg>
