<svg width="110" height="35" viewBox="0 0 110 35" fill="none" xmlns="http://www.w3.org/2000/svg">
<g clip-path="url(#clip0_41_252)">
<path d="M43.7766 31.8307H42.7725V34.9312H43.3233V33.8018H43.6696C44.3747 33.8018 44.8185 33.4451 44.8185 32.8288C44.8532 32.3126 44.4628 31.862 43.9403 31.8276C43.8868 31.8245 43.8301 31.8245 43.7766 31.8307ZM43.7042 33.2699H43.3233V32.3657H43.7546C44.0694 32.3657 44.2456 32.519 44.2456 32.8069C44.2456 33.0947 44.0505 33.2699 43.7042 33.2699Z" fill="white"/>
<path d="M49.3955 31.7963L47.9727 34.9249H48.6022L48.8415 34.368H50.1006L50.3524 34.9249H50.982L49.5592 31.7963H49.3955ZM49.0492 33.8768L49.4679 32.8663L49.8991 33.8768H49.0492Z" fill="white"/>
<path d="M56.8051 34.1491L56.6383 33.8863C56.547 33.7236 56.4148 33.5828 56.2543 33.4827C56.5785 33.3919 56.7957 33.0916 56.78 32.7568C56.78 32.1311 56.3739 31.8182 55.6814 31.8182H54.7622V34.9187H55.3162V33.6954H55.5303C55.7632 33.6641 55.9899 33.7924 56.0811 34.0083L56.3959 34.5057C56.4904 34.6496 56.61 34.8186 56.6824 34.9093L56.7075 34.9344H57.4252L57.3308 34.8155C57.1419 34.6058 56.9657 34.3837 56.8051 34.1491ZM55.6688 33.1854H55.3162V32.3532H55.6751C56.1189 32.3532 56.2259 32.5441 56.2259 32.7568C56.2259 32.9696 56.1 33.1854 55.6688 33.1854Z" fill="white"/>
<path d="M61.5523 31.8339H61.0015V34.9343H61.5523V31.8339Z" fill="white"/>
<path d="M66.5256 33.0665L66.3461 33.0071C66.0723 32.9132 66.0125 32.7944 66.0125 32.6504C66.0125 32.4596 66.1667 32.3376 66.4185 32.3376C66.6641 32.3376 66.9033 32.4033 67.111 32.5284L67.2055 32.5754V31.9684H67.1583C66.919 31.8714 66.6641 31.8214 66.4059 31.8245C65.918 31.7932 65.4931 32.1624 65.4616 32.6473C65.4616 32.6536 65.4616 32.663 65.4616 32.6692C65.4616 33.0853 65.6882 33.3575 66.1667 33.5358L66.3713 33.6078C66.7428 33.7392 66.8151 33.88 66.8151 34.0708C66.8151 34.3086 66.6483 34.4525 66.3493 34.4525C66.0691 34.4525 65.7921 34.3681 65.5592 34.2148L65.4521 34.1553V34.781L65.4868 34.8061C65.7512 34.9343 66.0408 35 66.3367 34.9969C66.8561 35.0438 67.3157 34.6622 67.3629 34.1459C67.366 34.124 67.366 34.1021 67.366 34.0834C67.3755 33.5796 67.111 33.2824 66.5256 33.0665Z" fill="white"/>
<path d="M95.6082 6.90487L95.8002 6.36987H92.3691L92.5958 6.91738C92.8224 7.46489 92.8098 8.21264 92.8098 9.06675V22.6826C92.8098 23.5492 92.8098 24.2875 92.5958 24.857L92.3817 25.4045H95.8002L95.6082 24.8695C95.3816 24.2281 95.3816 23.3834 95.3816 22.3853V9.33894C95.4068 8.35343 95.4068 7.52121 95.6082 6.90487Z" fill="white"/>
<path d="M109.273 23.302C108.467 23.6024 107.614 23.7557 106.754 23.7525H101.863V15.2333H107.815L108.366 13.669H101.863V7.98425H106.106C106.871 7.94983 107.633 8.07811 108.341 8.36594L109.153 8.69757L108.7 6.36987H98.8125L99.0265 6.90487C99.2532 7.51182 99.2532 8.35343 99.2532 9.34207V22.401C99.2532 23.909 99.2532 24.2312 99.0265 24.8726L98.8345 25.4076H109.389L110 23.0205L109.273 23.302Z" fill="white"/>
<path d="M49.4805 8.86657V9.34212V22.3885C49.4805 23.8965 49.4805 24.2313 49.2759 24.8726L49.0965 25.4076H55.455C61.1211 25.4076 64.3004 20.43 64.3004 15.6182C64.3004 10.5216 60.7024 6.37305 54.9892 6.37305H49.0713L49.2853 6.92994C49.5025 7.41488 49.4899 8.10631 49.4805 8.86657ZM51.9673 7.97491H54.5862C58.6501 7.97491 61.6405 11.6104 61.6405 16.6256C61.6405 20.1766 59.8242 23.7651 55.3637 23.7651H51.9641L51.9673 7.97491Z" fill="white"/>
<path d="M45.1048 6.36987H44.5665L44.7932 6.92677C44.9506 7.45551 45.0198 8.00302 44.9978 8.55366V18.4495C44.9978 21.55 42.7502 23.69 40.062 23.69C37.421 23.69 35.3403 21.6001 35.3403 18.4495V9.04485C35.2962 8.33153 35.3592 7.61194 35.5323 6.91738L35.7118 6.38239H32.4443L32.6238 6.91738C32.8158 7.45238 32.8032 8.18761 32.8032 9.04485V18.5496C32.8032 22.8984 35.8754 25.8331 39.678 25.8331C43.4805 25.8331 46.5024 22.8484 46.5024 18.4996V8.55679C46.4835 8.00302 46.5433 7.45238 46.6819 6.91738L46.8739 6.36987H45.1048Z" fill="white"/>
<path d="M24.5778 6.02576H24.027C24.027 6.02576 18.9905 18.1461 17.4418 22.2321C16.979 23.3865 16.3243 24.4534 15.5059 25.392H18.0398C18.0398 25.392 19.3902 21.9348 20.7879 18.3463H26.7687C28.1317 21.9348 29.4569 25.392 29.4569 25.392H33.0297C32.1326 24.5003 31.4275 23.4366 30.9616 22.2634L24.5778 6.02576ZM21.3513 16.8978C22.5097 13.9287 23.5737 11.2068 23.8035 10.6843C24.0175 11.2193 25.0626 13.9287 26.1958 16.8978H21.3513Z" fill="white"/>
<path d="M87.9718 23.7495H84.2165V9.27015C84.1787 8.50676 84.2354 7.74025 84.3833 6.98937C84.4306 6.82356 84.588 6.36365 84.588 6.36365H81.1694L81.374 6.89864C81.5881 7.5056 81.5881 8.3472 81.5881 9.33585V22.3822C81.5881 23.9028 81.5881 24.225 81.374 24.8664L81.182 25.4014H90.6254L91.2361 23.0236L90.5184 23.2958C89.7094 23.6149 88.8438 23.7682 87.9718 23.7495Z" fill="white"/>
<path d="M9.6008 24.0122C6.24209 24.0122 2.96523 20.5707 2.96523 14.9705C2.96523 10.775 5.49921 7.6526 9.6008 7.6526C12.0624 7.6526 14.0077 9.32642 15.3518 11.967L15.1 7.66512C13.4757 6.56697 11.5524 5.98817 9.58821 6.00069C4.34082 6.00069 0 10.6936 0 16.2313C0 21.6126 4.28101 25.6641 9.58821 25.6641C11.5682 25.6547 13.4883 24.9696 15.0245 23.7275L15.5376 20.4831C13.8189 22.7889 12.5408 24.0122 9.6008 24.0122Z" fill="white"/>
<path d="M78.4178 22.2789L72.0341 6.03821H71.4738L64.898 22.2445C64.5927 23.1018 64.1426 23.8996 63.5697 24.6098L62.959 25.417H65.493C65.493 25.417 66.8434 21.9598 68.2316 18.3713H74.2124C75.588 21.9598 76.9006 25.417 76.9006 25.417H80.4985L79.6864 24.4784C79.1355 23.8245 78.7074 23.0799 78.4178 22.2789ZM68.8296 16.8977C69.988 13.9286 71.0646 11.2067 71.2692 10.6842C71.4832 11.2192 72.5283 13.9286 73.6615 16.8977H68.8296Z" fill="white"/>
<path d="M92.6463 4.03904C95.1079 4.2643 96.9147 2.47472 96.6881 0.0218731C94.2108 -0.225289 92.4071 1.58306 92.6463 4.03904Z" fill="white"/>
</g>
<defs>
<clipPath id="clip0_41_252">
<rect width="110" height="35" fill="white"/>
</clipPath>
</defs>
</svg>
