<svg width="110" height="35" viewBox="0 0 110 35" fill="none" xmlns="http://www.w3.org/2000/svg">
<g id="Frame" clip-path="url(#clip0_9_276)">
<path id="Vector" d="M43.7765 31.8307H42.7723V34.9312H43.3232V33.8018H43.6695C44.3746 33.8018 44.8184 33.4451 44.8184 32.8288C44.853 32.3126 44.4627 31.862 43.9402 31.8276C43.8867 31.8245 43.83 31.8245 43.7765 31.8307ZM43.7041 33.2699H43.3232V32.3657H43.7545C44.0692 32.3657 44.2455 32.519 44.2455 32.8069C44.2455 33.0947 44.0503 33.2699 43.7041 33.2699Z" fill="#18181B"/>
<path id="Vector_2" d="M49.3953 31.7963L47.9725 34.9249H48.6021L48.8413 34.368H50.1005L50.3523 34.9249H50.9818L49.559 31.7963H49.3953ZM49.0491 33.8768L49.4677 32.8663L49.899 33.8768H49.0491Z" fill="#18181B"/>
<path id="Vector_3" d="M56.8053 34.1491L56.6384 33.8863C56.5471 33.7236 56.4149 33.5828 56.2544 33.4827C56.5786 33.3919 56.7958 33.0916 56.7801 32.7568C56.7801 32.1311 56.374 31.8182 55.6815 31.8182H54.7623V34.9187H55.3163V33.6954H55.5304C55.7633 33.6641 55.99 33.7924 56.0813 34.0083L56.396 34.5057C56.4905 34.6496 56.6101 34.8186 56.6825 34.9093L56.7077 34.9344H57.4254L57.3309 34.8155C57.1421 34.6058 56.9658 34.3837 56.8053 34.1491ZM55.6689 33.1854H55.3163V32.3532H55.6752C56.119 32.3532 56.2261 32.5441 56.2261 32.7568C56.2261 32.9696 56.1001 33.1854 55.6689 33.1854Z" fill="#18181B"/>
<path id="Vector_4" d="M61.5521 31.8339H61.0013V34.9343H61.5521V31.8339Z" fill="#18181B"/>
<path id="Vector_5" d="M66.5257 33.0665L66.3463 33.0071C66.0724 32.9132 66.0126 32.7944 66.0126 32.6504C66.0126 32.4596 66.1668 32.3376 66.4186 32.3376C66.6642 32.3376 66.9034 32.4033 67.1112 32.5284L67.2056 32.5754V31.9684H67.1584C66.9192 31.8714 66.6642 31.8214 66.4061 31.8245C65.9181 31.7932 65.4932 32.1624 65.4617 32.6473C65.4617 32.6536 65.4617 32.663 65.4617 32.6692C65.4617 33.0853 65.6884 33.3575 66.1668 33.5358L66.3714 33.6078C66.7429 33.7392 66.8153 33.88 66.8153 34.0708C66.8153 34.3086 66.6484 34.4525 66.3494 34.4525C66.0692 34.4525 65.7922 34.3681 65.5593 34.2148L65.4523 34.1553V34.781L65.4869 34.8061C65.7513 34.9343 66.0409 35 66.3368 34.9969C66.8562 35.0438 67.3158 34.6622 67.363 34.1459C67.3661 34.124 67.3661 34.1021 67.3661 34.0834C67.3756 33.5796 67.1112 33.2824 66.5257 33.0665Z" fill="#18181B"/>
<path id="Vector_6" d="M95.6082 6.90487L95.8002 6.36987H92.3691L92.5958 6.91738C92.8224 7.46489 92.8098 8.21264 92.8098 9.06675V22.6826C92.8098 23.5492 92.8098 24.2875 92.5958 24.857L92.3817 25.4045H95.8002L95.6082 24.8695C95.3816 24.2281 95.3816 23.3834 95.3816 22.3853V9.33894C95.4068 8.35343 95.4068 7.52121 95.6082 6.90487Z" fill="#18181B"/>
<path id="Vector_7" d="M109.273 23.302C108.467 23.6024 107.614 23.7557 106.755 23.7525H101.863V15.2333H107.815L108.366 13.669H101.863V7.98425H106.106C106.871 7.94983 107.633 8.07811 108.341 8.36594L109.153 8.69757L108.7 6.36987H98.8127L99.0268 6.90487C99.2534 7.51182 99.2534 8.35343 99.2534 9.34207V22.401C99.2534 23.909 99.2534 24.2312 99.0268 24.8726L98.8348 25.4076H109.389L110 23.0205L109.273 23.302Z" fill="#18181B"/>
<path id="Vector_8" d="M49.4803 8.86657V9.34212V22.3885C49.4803 23.8965 49.4803 24.2313 49.2757 24.8726L49.0963 25.4076H55.4549C61.1209 25.4076 64.3002 20.43 64.3002 15.6182C64.3002 10.5216 60.7022 6.37305 54.989 6.37305H49.0711L49.2852 6.92994C49.5024 7.41488 49.4898 8.10631 49.4803 8.86657ZM51.9671 7.97491H54.5861C58.6499 7.97491 61.6403 11.6104 61.6403 16.6256C61.6403 20.1766 59.824 23.7651 55.3636 23.7651H51.9639L51.9671 7.97491Z" fill="#18181B"/>
<path id="Vector_9" d="M45.1049 6.36987H44.5666L44.7932 6.92677C44.9506 7.45551 45.0199 8.00302 44.9978 8.55366V18.4495C44.9978 21.55 42.7503 23.69 40.0621 23.69C37.4211 23.69 35.3404 21.6001 35.3404 18.4495V9.04485C35.2963 8.33153 35.3593 7.61194 35.5324 6.91738L35.7118 6.38239H32.4444L32.6238 6.91738C32.8158 7.45238 32.8032 8.18761 32.8032 9.04485V18.5496C32.8032 22.8984 35.8755 25.8331 39.6781 25.8331C43.4806 25.8331 46.5025 22.8484 46.5025 18.4996V8.55679C46.4836 8.00302 46.5434 7.45238 46.6819 6.91738L46.8739 6.36987H45.1049Z" fill="#18181B"/>
<path id="Vector_10" d="M24.5781 6.02576H24.0272C24.0272 6.02576 18.9907 18.1461 17.442 22.2321C16.9793 23.3865 16.3245 24.4534 15.5061 25.392H18.0401C18.0401 25.392 19.3905 21.9348 20.7881 18.3463H26.7689C28.1319 21.9348 29.4572 25.392 29.4572 25.392H33.0299C32.1328 24.5003 31.4277 23.4366 30.9618 22.2634L24.5781 6.02576ZM21.3516 16.8978C22.51 13.9287 23.5739 11.2068 23.8037 10.6843C24.0178 11.2193 25.0628 13.9287 26.196 16.8978H21.3516Z" fill="#18181B"/>
<path id="Vector_11" d="M87.9717 23.7495H84.2163V9.27015C84.1786 8.50676 84.2352 7.74025 84.3832 6.98937C84.4304 6.82356 84.5878 6.36365 84.5878 6.36365H81.1693L81.3739 6.89864C81.5879 7.5056 81.5879 8.3472 81.5879 9.33585V22.3822C81.5879 23.9028 81.5879 24.225 81.3739 24.8664L81.1818 25.4014H90.6253L91.2359 23.0236L90.5182 23.2958C89.7092 23.6149 88.8436 23.7682 87.9717 23.7495Z" fill="#18181B"/>
<path id="Vector_12" d="M9.6008 24.0122C6.24209 24.0122 2.96523 20.5707 2.96523 14.9705C2.96523 10.775 5.49921 7.6526 9.6008 7.6526C12.0624 7.6526 14.0077 9.32642 15.3518 11.967L15.1 7.66512C13.4757 6.56697 11.5524 5.98817 9.58821 6.00069C4.34082 6.00069 0 10.6936 0 16.2313C0 21.6126 4.28101 25.6641 9.58821 25.6641C11.5682 25.6547 13.4883 24.9696 15.0245 23.7275L15.5376 20.4831C13.8189 22.7889 12.5408 24.0122 9.6008 24.0122Z" fill="#18181B"/>
<path id="Vector_13" d="M78.4181 22.2789L72.0343 6.03821H71.474L64.8983 22.2445C64.5929 23.1018 64.1428 23.8996 63.5699 24.6098L62.9592 25.417H65.4932C65.4932 25.417 66.8436 21.9598 68.2318 18.3713H74.2126C75.5882 21.9598 76.9009 25.417 76.9009 25.417H80.4988L79.6867 24.4784C79.1358 23.8245 78.7077 23.0799 78.4181 22.2789ZM68.8299 16.8977C69.9883 13.9286 71.0648 11.2067 71.2694 10.6842C71.4835 11.2192 72.5286 13.9286 73.6618 16.8977H68.8299Z" fill="#18181B"/>
<path id="Vector_14" d="M92.6462 4.03904C95.1078 4.2643 96.9146 2.47472 96.688 0.0218731C94.2106 -0.225289 92.4069 1.58306 92.6462 4.03904Z" fill="#18181B"/>
</g>
<defs>
<clipPath id="clip0_9_276">
<rect width="110" height="35" fill="white"/>
</clipPath>
</defs>
</svg>
