<svg width="111" height="30" viewBox="0 0 111 30" fill="none" xmlns="http://www.w3.org/2000/svg">
<g id="Vector">
<path d="M0.296744 16.1461L0.73156 16.5676C7.97849 25.2773 9.138 26.6821 9.28294 26.8225C11.7469 29.2107 14.9356 30.3345 18.4141 29.9131C21.7477 29.4916 24.7914 27.6654 26.5306 24.8558C27.1104 23.8725 26.6756 23.0296 25.9509 22.7486C25.2262 22.3272 24.3566 22.3272 23.7768 23.3106C21.8926 26.2606 18.559 27.5249 15.2254 26.6821C11.8918 25.8392 9.57282 23.0296 9.57282 19.6581C9.57282 16.1461 11.7469 13.3365 15.0805 12.3532C18.559 11.3698 21.8926 12.6341 23.7768 15.5842C24.0667 16.1461 24.5015 16.4271 25.0813 16.2866C25.661 16.2866 26.2408 15.8652 26.5306 15.4437C26.8205 15.0223 26.8205 14.4604 26.3857 13.8985C23.9218 9.82456 18.9938 7.99833 14.2109 9.12216L13.921 9.26264L17.3995 2.23869C17.8343 1.25533 17.3995 0.412458 16.6748 0.1315C15.8052 -0.149458 14.9356 -0.0089789 14.3558 0.833896L8.70319 12.4937L7.83356 4.62683C7.83356 4.06492 7.39874 3.64348 6.96392 3.36252C6.52911 3.22204 5.80441 3.22204 5.22466 3.503C4.78984 3.78396 4.49997 4.34587 4.64491 4.90779L5.94935 17.6914L2.90564 14.1794C2.61576 13.758 2.18095 13.6175 1.74613 13.6175H1.60119C1.16638 13.6175 0.876499 13.758 0.586621 13.8985C-0.138072 14.4604 -0.138072 15.4437 0.296744 16.1461Z" fill="#18181B"/>
<path d="M23.4869 20.6415C22.7622 21.3438 21.6027 21.3438 21.023 20.6415C20.2983 19.9391 20.2983 18.8152 21.023 18.2533C21.7477 17.5509 22.9072 17.5509 23.4869 18.2533C24.2116 18.9557 24.2116 20.0795 23.4869 20.6415ZM16.24 18.2533C15.5153 18.9557 15.5153 20.0795 16.24 20.6415C16.9647 21.3438 18.1242 21.3438 18.704 20.6415C19.4287 19.9391 19.4287 18.8152 18.704 18.2533C18.1242 17.5509 16.9647 17.5509 16.24 18.2533ZM11.602 18.2533C10.8773 18.9557 10.8773 20.0795 11.602 20.6415C12.3267 21.3438 13.4862 21.3438 14.0659 20.6415C14.7906 19.9391 14.7906 18.8152 14.0659 18.2533C13.3412 17.6914 12.1817 17.5509 11.602 18.2533Z" fill="#18181B"/>
<path d="M44.2467 20.4458C44.2467 20.9518 44.0742 21.2892 43.9017 21.7952C43.7293 22.3012 43.3843 22.8072 42.8668 23.3133C42.3493 23.8193 41.8319 24.1566 41.1419 24.494C40.452 24.8313 39.5895 25 38.5546 25C37.8646 25 37.1747 25 36.4847 24.8313C35.9672 24.6626 35.2773 24.494 34.9323 24.1566C34.4148 23.8193 34.0699 23.4819 33.5524 22.9759C33.2074 22.4699 32.8624 22.1325 32.69 21.6265C32.5175 21.1205 32.1725 20.6145 32.1725 19.9398C32 19.2651 32 18.759 32 18.0843C32 17.0723 32.1725 16.0602 32.5175 15.2169C32.8624 14.3735 33.3799 13.6988 33.8974 13.0241C34.4148 12.3494 35.2773 12.012 35.9673 11.6747C36.8297 11.3374 37.6921 11.1687 38.5546 11.1687C39.5895 11.1687 40.6245 11.3373 41.4869 11.8434C42.3493 12.3494 43.0393 12.8554 43.5568 13.5301C44.0742 14.2048 44.2467 14.7108 44.2467 15.3855C44.2467 15.7229 44.0742 15.8916 43.9017 16.2289C43.7293 16.3976 43.3843 16.5663 43.0393 16.5663C42.6943 16.5663 42.3493 16.5663 42.1769 16.3976C42.0044 16.2289 41.8319 15.8916 41.6594 15.5542C41.3144 14.8795 40.7969 14.3735 40.452 14.0361C39.9345 13.6988 39.417 13.5301 38.5546 13.5301C37.3472 13.5301 36.4847 14.0361 35.7948 14.8795C35.1048 15.7229 34.7598 16.9036 34.7598 18.5904C34.7598 19.6024 34.9323 20.4458 35.2773 21.1205C35.6223 21.7952 35.9672 22.3012 36.4847 22.6386C37.0022 22.9759 37.6921 23.1446 38.3821 23.1446C39.2445 23.1446 39.9345 22.9759 40.452 22.6386C40.9694 22.3012 41.4869 21.6265 41.6594 20.9518C41.8319 20.6145 42.0044 20.2771 42.1769 20.1084C42.3493 19.9398 42.6943 19.7711 43.0393 19.7711C43.3843 19.7711 43.7293 19.9398 43.9017 20.1084C44.2467 19.9398 44.2467 20.1084 44.2467 20.4458Z" fill="#18181B"/>
<path d="M55.286 19.9398C55.286 20.6145 55.1135 21.4578 54.941 21.9639C54.7686 22.6386 54.4236 23.1446 53.9061 23.6506C53.3886 24.1566 52.8712 24.494 52.3537 24.6626C51.6637 24.8313 50.9738 25 50.1114 25C49.2489 25 48.5589 24.8313 48.0415 24.6626C47.3515 24.494 46.8341 23.988 46.4891 23.6506C45.9716 23.1446 45.6266 22.6386 45.4541 21.9639C45.2817 21.2892 45.1092 20.6145 45.1092 19.9398C45.1092 19.0964 45.2817 18.4217 45.4541 17.9157C45.6266 17.241 45.9716 16.7349 46.4891 16.2289C47.0065 15.7229 47.524 15.3855 48.0415 15.2169C48.7314 15.0482 49.4214 14.8795 50.1114 14.8795C50.9738 14.8795 51.6638 15.0482 52.1812 15.2169C52.8712 15.3855 53.3886 15.8916 53.7336 16.2289C54.2511 16.7349 54.5961 17.241 54.7686 17.9157C55.1135 18.4217 55.286 19.0964 55.286 19.9398ZM52.6987 19.9398C52.6987 18.9277 52.5262 18.0843 52.0087 17.5783C51.4913 16.9036 50.9738 16.5663 50.1114 16.5663C49.5939 16.5663 49.2489 16.7349 48.7314 16.9036C48.3865 17.241 48.0415 17.5783 47.869 18.0843C47.6965 18.5904 47.524 19.0964 47.524 19.7711C47.524 20.4458 47.6965 20.9518 47.869 21.4578C48.0415 21.9639 48.3865 22.3012 48.7314 22.6386C49.0764 22.9759 49.5939 22.9759 50.1114 22.9759C50.9738 22.9759 51.4913 22.6386 52.0087 22.1325C52.5262 21.6265 52.6987 20.9518 52.6987 19.9398Z" fill="#18181B"/>
<path d="M65.9803 19.9398C65.9803 20.6145 65.8079 21.4578 65.6354 21.9639C65.4629 22.6386 65.1179 23.1446 64.6004 23.6506C64.083 24.1566 63.5655 24.494 63.048 24.6626C62.3581 24.8313 61.6681 25 60.9782 25C60.1157 25 59.4258 24.8313 58.9083 24.6626C58.2183 24.494 57.7009 23.988 57.3559 23.6506C56.8384 23.1446 56.4934 22.6386 56.321 21.9639C56.1485 21.2892 55.976 20.6145 55.976 19.9398C55.976 19.0964 56.1485 18.4217 56.321 17.9157C56.4934 17.241 56.8384 16.7349 57.3559 16.2289C57.8734 15.7229 58.3908 15.3855 58.9083 15.2169C59.5983 15.0482 60.2882 14.8795 60.9782 14.8795C61.8406 14.8795 62.5306 15.0482 63.048 15.2169C63.738 15.3855 64.2555 15.8916 64.6004 16.2289C65.1179 16.7349 65.4629 17.241 65.6354 17.9157C65.8079 18.4217 65.9803 19.0964 65.9803 19.9398ZM63.393 19.9398C63.393 18.9277 63.2205 18.0843 62.7031 17.5783C62.1856 16.9036 61.4956 16.5663 60.8057 16.5663C60.2882 16.5663 59.9432 16.7349 59.4258 16.9036C59.0808 17.241 58.7358 17.5783 58.5633 18.0843C58.3908 18.5904 58.2183 19.0964 58.2183 19.7711C58.2183 20.4458 58.3908 20.9518 58.5633 21.4578C58.7358 21.9639 59.0808 22.3012 59.4258 22.6386C59.7707 22.9759 60.2882 22.9759 60.8057 22.9759C61.6681 22.9759 62.1856 22.6386 62.7031 22.1325C63.048 21.6265 63.393 20.9518 63.393 19.9398Z" fill="#18181B"/>
<path d="M67.0153 23.4819V12.5181C67.0153 12.012 67.1878 11.6747 67.3603 11.3373C67.5327 11 67.8777 11 68.2227 11C68.5677 11 68.9127 11.1687 69.0852 11.3373C69.2576 11.6747 69.4301 12.012 69.4301 12.5181V23.4819C69.4301 23.9879 69.2576 24.3253 69.0852 24.6626C68.9127 25 68.5677 25 68.2227 25C67.8777 25 67.5327 24.8313 67.3603 24.6626C67.0153 24.3253 67.0153 23.9879 67.0153 23.4819Z" fill="#18181B"/>
<path d="M83.2292 20.4458C83.2292 20.9518 83.0568 21.2892 82.8843 21.7952C82.7118 22.3012 82.3668 22.8072 81.8493 23.3133C81.3319 23.8193 80.8144 24.1566 80.1245 24.494C79.4345 24.8313 78.5721 25 77.5371 25C76.8472 25 76.1572 25 75.6397 24.8313C75.1223 24.6626 74.4323 24.494 74.0873 24.1566C73.5699 23.8193 73.2249 23.4819 72.7074 22.9759C72.3624 22.4699 72.0175 22.1325 71.845 21.6265C71.6725 21.1205 71.3275 20.6145 71.3275 19.9398C71.155 19.2651 71.155 18.759 71.155 18.0843C71.155 17.0723 71.3275 16.0602 71.6725 15.2169C72.0175 14.3735 72.5349 13.6988 73.0524 13.0241C73.5699 12.3494 74.4323 12.012 75.1223 11.6747C75.9847 11.3374 76.8472 11.1687 77.7096 11.1687C78.7445 11.1687 79.7795 11.3373 80.6419 11.8434C81.5044 12.3494 82.1943 12.8554 82.7118 13.5301C83.2292 14.2048 83.4017 14.7108 83.4017 15.3855C83.4017 15.7229 83.2292 15.8916 83.0568 16.2289C82.8843 16.3976 82.5393 16.5663 82.1943 16.5663C81.8493 16.5663 81.5044 16.5663 81.3319 16.3976C81.1594 16.2289 80.9869 15.8916 80.8144 15.5542C80.4694 14.8795 79.952 14.3735 79.607 14.0361C79.0895 13.6988 78.572 13.5301 77.7096 13.5301C76.5022 13.5301 75.6397 14.0361 74.9498 14.8795C74.2598 15.7229 73.9148 16.9036 73.9148 18.5904C73.9148 19.6024 74.0873 20.4458 74.4323 21.1205C74.7773 21.7952 75.1223 22.3012 75.6397 22.6386C76.1572 22.9759 76.8472 23.1446 77.5371 23.1446C78.3996 23.1446 79.0895 22.9759 79.607 22.6386C80.1245 22.3012 80.6419 21.6265 80.8144 20.9518C80.9869 20.6145 81.1594 20.2771 81.3319 20.1084C81.5044 19.9398 81.8493 19.7711 82.1943 19.7711C82.5393 19.7711 82.8843 19.9398 83.0568 20.1084C83.0568 19.9398 83.2292 20.1084 83.2292 20.4458Z" fill="#18181B"/>
<path d="M87.024 12.5181V16.2289C87.369 15.8916 87.714 15.5542 88.059 15.3855C88.4039 15.2169 88.7489 15.0482 89.0939 14.8795C89.4389 14.7108 89.9563 14.7108 90.3013 14.7108C90.9913 14.7108 91.5087 14.8795 92.0262 15.0482C92.5437 15.3855 92.8886 15.7229 93.2336 16.2289C93.4061 16.5663 93.5786 16.9036 93.5786 17.241C93.5786 17.5783 93.7511 18.0843 93.7511 18.5904V23.3133C93.7511 23.8193 93.5786 24.1566 93.4061 24.494C93.2336 24.8313 92.8886 24.8313 92.5437 24.8313C91.6812 24.8313 91.3362 24.3253 91.3362 23.3133V19.0964C91.3362 18.253 91.1637 17.747 90.9913 17.241C90.8188 16.7349 90.3013 16.5663 89.6114 16.5663C89.0939 16.5663 88.7489 16.7349 88.4039 16.9036C88.059 17.241 87.714 17.5783 87.5415 17.9157C87.369 18.253 87.369 18.9277 87.369 19.9398V23.3133C87.369 23.8193 87.1965 24.1566 87.024 24.494C86.8515 24.8313 86.5065 24.8313 85.9891 24.8313C85.1266 24.8313 84.7817 24.3253 84.7817 23.3133V12.5181C84.7817 12.012 84.9541 11.6747 85.1266 11.3373C85.2991 11 85.6441 11 85.9891 11C86.3341 11 86.679 11.1687 87.024 11.3373C87.024 11.6747 87.024 12.012 87.024 12.5181Z" fill="#18181B"/>
<path d="M101.686 23.6506C100.996 24.1566 100.478 24.494 99.9607 24.6626C99.4432 24.8313 98.7533 25 98.0633 25C97.3734 25 96.8559 24.8313 96.3384 24.6626C95.821 24.3253 95.476 23.988 95.131 23.6506C94.786 23.1446 94.786 22.8072 94.786 22.3012C94.786 21.6265 94.9585 20.9518 95.476 20.6145C95.9934 20.1084 96.5109 19.7711 97.3734 19.6024C97.5458 19.6024 97.8908 19.4337 98.5808 19.4337C99.2707 19.2651 99.7882 19.2651 100.306 19.0964C100.823 18.9277 101.341 18.9277 101.858 18.759C101.858 18.0843 101.686 17.5783 101.513 17.241C101.341 16.9036 100.823 16.7349 99.9607 16.7349C99.2707 16.7349 98.7533 16.9036 98.4083 17.0723C98.0633 17.241 97.7183 17.5783 97.5458 17.9157C97.0284 17.9157 96.8559 18.253 96.6834 18.253C96.5109 18.4217 96.3384 18.4217 95.9934 18.4217C95.6485 18.4217 95.476 18.253 95.3035 18.0843C95.131 17.9157 94.9585 17.747 94.9585 17.4096C94.9585 16.9036 95.131 16.5663 95.476 16.0602C95.821 15.7229 96.3384 15.2169 97.0284 15.0482C97.7183 14.7108 98.5808 14.7108 99.6157 14.7108C100.823 14.7108 101.686 14.8795 102.203 15.0482C102.893 15.3855 103.238 15.7229 103.583 16.2289C103.928 16.7349 103.928 17.5783 103.928 18.4217C103.928 18.9277 103.928 19.4337 103.928 19.9398C103.928 20.2771 103.928 20.7831 103.928 21.2892C103.928 21.7952 103.928 22.3012 104.1 22.8072C104.273 23.3133 104.273 23.6506 104.273 23.8193C104.273 24.1566 104.1 24.3253 103.928 24.494C103.928 24.8313 103.583 25 103.238 25C102.893 25 102.721 24.8313 102.376 24.6626C102.203 24.3253 102.031 23.988 101.686 23.6506ZM101.513 19.9398C101.168 20.1084 100.651 20.2771 99.7882 20.4458C99.0982 20.6145 98.5808 20.7831 98.2358 20.7831C97.8908 20.7831 97.7183 20.9518 97.3734 21.1205C97.2009 21.2892 97.0284 21.6265 97.0284 21.9639C97.0284 22.3012 97.2009 22.6386 97.5458 22.9759C97.8908 23.3133 98.2358 23.3133 98.7533 23.3133C99.2707 23.3133 99.7882 23.1446 100.133 22.9759C100.478 22.8072 100.823 22.4699 100.996 22.1325C101.168 21.7952 101.341 21.1205 101.341 20.2771V19.9398H101.513Z" fill="#18181B"/>
<path d="M105.653 15.0482H105.998V13.5301C105.998 13.1928 105.998 12.8554 105.998 12.5181C105.998 12.3494 105.998 12.012 106.17 11.8434C106.343 11.6747 106.343 11.506 106.688 11.506C106.86 11.506 107.033 11.3373 107.205 11.3373C107.55 11.3373 107.895 11.506 108.068 11.6747C108.24 11.8434 108.413 12.012 108.413 12.1807C108.413 12.3494 108.413 12.6867 108.413 13.1928V14.8795H109.275C109.62 14.8795 109.965 14.8795 110.138 15.0482C110.31 15.2169 110.483 15.3855 110.483 15.7229C110.483 16.0602 110.31 16.2289 110.138 16.3976C109.793 16.5663 109.448 16.5663 108.93 16.5663H108.413V21.1205C108.413 21.4578 108.413 21.7952 108.413 21.9639C108.413 22.1325 108.585 22.3012 108.585 22.4699C108.758 22.6386 108.93 22.6386 109.103 22.6386C109.275 22.6386 109.448 22.6386 109.793 22.6386C109.965 22.6386 110.31 22.6386 110.31 22.6386C110.483 22.6386 110.655 22.6386 110.827 22.8072C111 22.9759 111 23.1446 111 23.4819C111 23.8193 110.827 24.1566 110.31 24.3253C110.31 24.8313 109.62 25 108.758 25C107.895 25 107.378 24.8313 106.86 24.6626C106.515 24.3253 106.17 23.988 105.998 23.6506C105.825 23.1446 105.825 22.6386 105.825 21.7952V16.9036H105.48C105.135 16.9036 104.79 16.7349 104.618 16.5663C104.445 16.3976 104.273 16.2289 104.273 15.8916C104.273 15.5542 104.445 15.3855 104.618 15.2169C104.963 15.0482 105.308 15.0482 105.653 15.0482Z" fill="#18181B"/>
</g>
</svg>
