<svg width="160" height="22" viewBox="0 0 160 22" fill="none" xmlns="http://www.w3.org/2000/svg">
<g clip-path="url(#clip0_9_217)">
<path fill-rule="evenodd" clip-rule="evenodd" d="M15.327 21.9321C13.4002 21.6092 11.4968 21.1334 9.82395 20.5642C8.14893 19.9971 6.70435 19.3366 5.49876 18.6442C4.29316 17.9518 3.32655 17.2275 2.56479 16.5011C0.322175 14.341 -0.300893 12.1937 0.125866 10.057C0.430998 8.63181 1.25464 7.18539 2.88273 5.73685C3.7021 5.01258 4.73059 4.29043 6.0002 3.60864C7.2698 2.92685 8.78266 2.28541 10.5174 1.74168C12.2543 1.19582 14.2153 0.747664 16.3256 0.446061C18.4381 0.142335 20.6956 -0.0105905 22.9553 2.93543e-05C25.215 0.0127731 27.4747 0.191186 29.5722 0.514028C31.6697 0.83687 33.6072 1.30202 35.3164 1.86062C37.0255 2.41922 38.5085 3.07128 39.7483 3.75732C40.988 4.44336 41.9823 5.16763 42.7718 5.8919C45.0913 8.04772 45.757 10.1972 45.3879 12.3381C45.1169 13.7633 44.3316 15.2033 42.759 16.6498C41.9674 17.374 40.9688 18.0983 39.7291 18.7843C38.4915 19.4704 37.0149 20.1182 35.3036 20.6747C33.5923 21.2312 31.6505 21.6942 29.6832 22L22.7398 6.17439L15.327 21.9321ZM36.3897 15.505C37.4374 15.0228 38.2951 14.5131 38.9929 14.0012C41.0136 12.5017 41.7754 11 41.8031 9.526C41.7988 8.01799 41.0883 6.56307 39.1188 5.05081C38.4381 4.53681 37.5974 4.02494 36.571 3.53855C35.5447 3.05216 34.337 2.59339 32.9479 2.20045C31.5609 1.8054 29.9947 1.47618 28.3047 1.24467C26.6148 1.01316 24.801 0.883598 22.9852 0.86873C21.1693 0.855986 19.3513 0.957936 17.6464 1.16608C15.9415 1.37423 14.3519 1.68433 12.9308 2.0624C11.5096 2.44046 10.2592 2.88862 9.19235 3.36863C8.12545 3.84865 7.24206 4.36052 6.52511 4.8724C4.45533 6.37192 3.66156 7.88842 3.60821 9.36458C3.58688 10.8705 4.27823 12.3296 6.19224 13.8355C6.85585 14.3495 7.68163 14.8656 8.69091 15.3563C9.70019 15.8448 10.893 16.3057 12.1135 16.6668L22.8508 4.33504L32.8412 16.7921C34.1044 16.4374 35.342 15.9871 36.3897 15.505Z" fill="#18181B"/>
<path fill-rule="evenodd" clip-rule="evenodd" d="M158.302 15.8086H158.848V15.7024C158.741 15.7024 158.658 15.6663 158.611 15.5729L158.195 14.8889C158.421 14.7955 158.575 14.6532 158.575 14.4047C158.575 13.9565 158.125 13.8737 157.781 13.8737H156.774V13.9693H156.868C157.022 13.9693 157.045 14.0393 157.045 14.1689V15.5028C157.045 15.6918 156.962 15.7024 156.785 15.7024V15.8086H157.768V15.7024H157.672C157.529 15.7024 157.495 15.6323 157.495 15.5028V14.8889H157.768L158.302 15.8086ZM157.495 14.7934V14.0032C157.802 14.0032 158.112 14.0032 158.112 14.4047C158.112 14.6872 157.969 14.7934 157.709 14.7934H157.495ZM157.732 16.6837C158.739 16.6837 159.582 15.8575 159.582 14.8422C159.582 13.827 158.739 13.0007 157.732 13.0007C156.712 13.0007 155.869 13.827 155.869 14.8422C155.869 15.8575 156.712 16.6837 157.732 16.6837ZM157.732 16.4819C156.832 16.4819 156.083 15.7385 156.083 14.8401C156.083 13.9438 156.819 13.1983 157.732 13.1983C158.633 13.1983 159.381 13.9416 159.381 14.8401C159.379 15.7385 158.633 16.4819 157.732 16.4819Z" fill="#18181B"/>
<path fill-rule="evenodd" clip-rule="evenodd" d="M58.8713 16.5754V6.17432H56.586V16.5754H58.8713Z" fill="#18181B"/>
<path fill-rule="evenodd" clip-rule="evenodd" d="M69.1007 16.5754H66.9243V6.17432H69.6448L72.4742 12.4018V6.17432H74.7595V16.5754L71.9472 16.5924L69.1007 10.641V16.5754Z" fill="#18181B"/>
<path fill-rule="evenodd" clip-rule="evenodd" d="M88.036 8.23244H84.8801V10.2906H88.036V12.3487H84.8801V16.5754H82.5948V6.17432H88.036V8.23244Z" fill="#18181B"/>
<path fill-rule="evenodd" clip-rule="evenodd" d="M97.9389 16.5754V6.17432H95.6536V16.5754H97.9389Z" fill="#18181B"/>
<path fill-rule="evenodd" clip-rule="evenodd" d="M108.06 16.5754H105.883V6.17432H108.604L111.433 12.4018V6.17432H113.718V16.5754L110.906 16.5924L108.06 10.641V16.5754Z" fill="#18181B"/>
<path fill-rule="evenodd" clip-rule="evenodd" d="M124.057 16.5754V6.17432H121.771V16.5754H124.057Z" fill="#18181B"/>
<path fill-rule="evenodd" clip-rule="evenodd" d="M136.245 16.5754H133.959V8.23244H131.565V6.17432H138.639V8.23244H136.245V16.5754Z" fill="#18181B"/>
<path fill-rule="evenodd" clip-rule="evenodd" d="M148.651 16.5754V6.17432H146.365V16.5754H148.651Z" fill="#18181B"/>
</g>
<defs>
<clipPath id="clip0_9_217">
<rect width="159.582" height="22" fill="white"/>
</clipPath>
</defs>
</svg>
