<svg width="160" height="22" viewBox="0 0 160 22" fill="none" xmlns="http://www.w3.org/2000/svg">
<path fill-rule="evenodd" clip-rule="evenodd" d="M15.3268 21.9321C13.4 21.6092 11.4967 21.1334 9.82377 20.5642C8.14874 19.9971 6.70416 19.3366 5.49857 18.6442C4.29298 17.9518 3.32637 17.2275 2.56461 16.5011C0.321991 14.341 -0.301076 12.1937 0.125683 10.057C0.430815 8.63181 1.25446 7.18539 2.88254 5.73685C3.70192 5.01258 4.73041 4.29043 6.00001 3.60864C7.26962 2.92685 8.78248 2.28541 10.5173 1.74168C12.2542 1.19582 14.2151 0.747664 16.3254 0.446061C18.4379 0.142335 20.6954 -0.0105905 22.9551 2.93543e-05C25.2148 0.0127731 27.4745 0.191186 29.572 0.514028C31.6695 0.83687 33.607 1.30202 35.3162 1.86062C37.0254 2.41922 38.5083 3.07128 39.7481 3.75732C40.9878 4.44336 41.9822 5.16763 42.7717 5.8919C45.0911 8.04772 45.7568 10.1972 45.3877 12.3381C45.1167 13.7633 44.3315 15.2033 42.7589 16.6498C41.9672 17.374 40.9686 18.0983 39.7289 18.7843C38.4913 19.4704 37.0147 20.1182 35.3034 20.6747C33.5921 21.2312 31.6503 21.6942 29.683 22L22.7396 6.17439L15.3268 21.9321ZM36.3895 15.505C37.4372 15.0228 38.295 14.5131 38.9927 14.0012C41.0134 12.5017 41.7752 11 41.8029 9.526C41.7986 8.01799 41.0881 6.56307 39.1186 5.05081C38.4379 4.53681 37.5972 4.02494 36.5709 3.53855C35.5445 3.05216 34.3368 2.59339 32.9477 2.20045C31.5607 1.8054 29.9945 1.47618 28.3045 1.24467C26.6146 1.01316 24.8009 0.883598 22.985 0.86873C21.1691 0.855986 19.3512 0.957936 17.6463 1.16608C15.9414 1.37423 14.3517 1.68433 12.9306 2.0624C11.5095 2.44046 10.2591 2.88862 9.19217 3.36863C8.12527 3.84865 7.24188 4.36052 6.52493 4.8724C4.45515 6.37192 3.66138 7.88842 3.60803 9.36458C3.58669 10.8705 4.27804 12.3296 6.19205 13.8355C6.85566 14.3495 7.68144 14.8656 8.69073 15.3563C9.70001 15.8448 10.8928 16.3057 12.1133 16.6668L22.8506 4.33504L32.841 16.7921C34.1042 16.4374 35.3418 15.9871 36.3895 15.505Z" fill="white"/>
<path fill-rule="evenodd" clip-rule="evenodd" d="M158.302 15.8086H158.848V15.7024C158.741 15.7024 158.658 15.6663 158.611 15.5729L158.195 14.8889C158.421 14.7955 158.575 14.6532 158.575 14.4047C158.575 13.9565 158.125 13.8737 157.781 13.8737H156.774V13.9693H156.868C157.021 13.9693 157.045 14.0393 157.045 14.1689V15.5028C157.045 15.6918 156.962 15.7024 156.785 15.7024V15.8086H157.768V15.7024H157.672C157.529 15.7024 157.495 15.6323 157.495 15.5028V14.8889H157.768L158.302 15.8086ZM157.495 14.7934V14.0032C157.802 14.0032 158.112 14.0032 158.112 14.4047C158.112 14.6872 157.969 14.7934 157.708 14.7934H157.495ZM157.732 16.6837C158.739 16.6837 159.582 15.8575 159.582 14.8422C159.582 13.827 158.739 13.0007 157.732 13.0007C156.712 13.0007 155.869 13.827 155.869 14.8422C155.869 15.8575 156.712 16.6837 157.732 16.6837ZM157.732 16.4819C156.831 16.4819 156.083 15.7385 156.083 14.8401C156.083 13.9438 156.819 13.1983 157.732 13.1983C158.632 13.1983 159.381 13.9416 159.381 14.8401C159.379 15.7385 158.632 16.4819 157.732 16.4819Z" fill="white"/>
<path fill-rule="evenodd" clip-rule="evenodd" d="M58.8712 16.5755V6.17444H56.5859V16.5755H58.8712Z" fill="white"/>
<path fill-rule="evenodd" clip-rule="evenodd" d="M69.1008 16.5755H66.9243V6.17444H69.6449L72.4743 12.4019V6.17444H74.7596V16.5755L71.9473 16.5925L69.1008 10.6411V16.5755Z" fill="white"/>
<path fill-rule="evenodd" clip-rule="evenodd" d="M88.0359 8.23256H84.88V10.2907H88.0359V12.3488H84.88V16.5755H82.5947V6.17444H88.0359V8.23256Z" fill="white"/>
<path fill-rule="evenodd" clip-rule="evenodd" d="M97.9386 16.5755V6.17444H95.6533V16.5755H97.9386Z" fill="white"/>
<path fill-rule="evenodd" clip-rule="evenodd" d="M108.059 16.5755H105.883V6.17444H108.603L111.433 12.4019V6.17444H113.718V16.5755L110.906 16.5925L108.059 10.6411V16.5755Z" fill="white"/>
<path fill-rule="evenodd" clip-rule="evenodd" d="M124.056 16.5755V6.17444H121.771V16.5755H124.056Z" fill="white"/>
<path fill-rule="evenodd" clip-rule="evenodd" d="M136.245 16.5755H133.96V8.23256H131.565V6.17444H138.639V8.23256H136.245V16.5755Z" fill="white"/>
<path fill-rule="evenodd" clip-rule="evenodd" d="M148.651 16.5755V6.17444H146.365V16.5755H148.651Z" fill="white"/>
</svg>
