<svg width="120" height="28" viewBox="0 0 120 28" fill="none" xmlns="http://www.w3.org/2000/svg">
<path d="M29.18 6.73957V2.26113H42.0975V0H26.2728V15.3056H29.18V9.0007V6.73957ZM41.2241 9.0007V6.73957H31.4533V9.0007H41.2241ZM46.6877 15.3056V0H43.7811V15.3056H46.6877ZM70.0105 15.3056V0H67.4751V11.3705L52.1526 0H49.6384V15.3056H52.1743V3.3917L68.5895 15.3056H70.0105ZM75.8683 15.3056V0H72.9611V15.3056H75.8683ZM88.8734 15.3056V2.26173H96.7209V0.000600993H77.9014V2.26173H85.9668V15.3062H88.8734V15.3056ZM110.032 15.3056V9.08776L119.846 0H116.174L108.568 7.00074L100.962 0H97.2461L107.125 9.08776V15.3056H110.032ZM23.4314 15.3056V0H20.9395L11.8473 12.5011L2.7104 0H0V15.3056H2.68867V4.60933L10.5356 15.3056H12.9182L20.7433 4.58711V15.3056H23.4314Z" fill="#18181B"/>
<path d="M96.7589 23.168H93.3072V27.9178H96.7933V27.4291H93.8462V25.7665H96.4522V25.2778H93.8462V23.6561H96.7589V23.168ZM89.3333 24.6065C89.3333 24.7603 89.3025 24.8983 89.241 25.0202C89.1794 25.1421 89.0943 25.2454 88.985 25.3288C88.8757 25.4129 88.746 25.4771 88.5963 25.5222C88.4466 25.5672 88.2824 25.59 88.1055 25.59H86.6386V23.6627H88.1121C88.4985 23.6627 88.7991 23.7456 89.0128 23.9101C89.2265 24.0758 89.3333 24.3075 89.3333 24.6065ZM90.0499 27.9178L88.583 25.9773C88.7695 25.9455 88.9422 25.8914 89.1015 25.814C89.2609 25.7371 89.3985 25.641 89.5144 25.5258C89.6303 25.4105 89.7203 25.2748 89.7842 25.1187C89.8476 24.9626 89.8796 24.7849 89.8796 24.5861C89.8796 24.3736 89.8386 24.1803 89.7565 24.0061C89.6744 23.832 89.5585 23.6825 89.4088 23.5582C89.2585 23.434 89.078 23.3379 88.8667 23.27C88.6548 23.2022 88.4176 23.168 88.1538 23.168H86.1008V27.9178H86.6398V26.0721H88.0041L89.3889 27.9178H90.0499ZM82.7064 23.168H79.2541V27.9178H82.7402V27.4291H79.7932V25.7665H82.3992V25.2778H79.7932V23.6561H82.7064V23.168ZM75.0907 25.7803V27.9178H75.6298V23.168H75.0907V25.2784H72.3351V23.168H71.796V27.9178H72.3351V25.7803H75.0907ZM66.3559 23.168H62.9042V27.9178H66.3903V27.4291H63.4432V25.7665H66.0492V25.2778H63.4432V23.6561H66.3565V23.168H66.3559ZM58.7529 26.9745L55.7443 23.168H55.2396V27.9178H55.7648V24.023L58.8488 27.9178H59.2786V23.168H58.7535V26.9745H58.7529ZM51.0279 23.168V27.9178H51.567V23.168H51.0279ZM44.4831 27.9178H47.7096V27.4225H45.0216V23.168H44.4825V27.9178H44.4831ZM40.994 27.273V25.3799H39.0225V25.862H40.4755V27.043C40.3119 27.1739 40.1097 27.2862 39.8682 27.3786C39.6273 27.4717 39.3702 27.5173 39.0973 27.5173C38.8064 27.5173 38.545 27.4675 38.3132 27.3684C38.0808 27.2688 37.8834 27.1307 37.7192 26.9547C37.5556 26.7782 37.4294 26.5693 37.3407 26.3273C37.252 26.0854 37.2073 25.8218 37.2073 25.5366C37.2073 25.27 37.2532 25.0172 37.3437 24.7801C37.4349 24.5429 37.5598 24.3358 37.7192 24.1592C37.8785 23.9827 38.0693 23.8428 38.2927 23.7384C38.5154 23.6345 38.7587 23.5822 39.0225 23.5822C39.1909 23.5822 39.3442 23.5961 39.4831 23.6231C39.6219 23.6501 39.7493 23.6873 39.8646 23.7348C39.9811 23.7822 40.0885 23.8386 40.1887 23.9047C40.2889 23.9701 40.3843 24.044 40.4755 24.125L40.8238 23.7179C40.7055 23.6183 40.5841 23.5294 40.4586 23.4502C40.3336 23.3709 40.199 23.3043 40.0559 23.2502C39.9123 23.1962 39.7577 23.1554 39.5917 23.1277C39.4257 23.1007 39.2428 23.0869 39.0424 23.0869C38.6832 23.0869 38.3566 23.1536 38.0633 23.2875C37.7699 23.4207 37.5188 23.6003 37.3093 23.8266C37.0998 24.053 36.9375 24.3153 36.8216 24.6138C36.705 24.9122 36.6477 25.2244 36.6477 25.5498C36.6477 25.889 36.7038 26.2078 36.8149 26.5068C36.9266 26.8052 37.0878 27.0652 37.299 27.2874C37.5109 27.5089 37.7651 27.683 38.0633 27.8097C38.3609 27.9364 38.6989 28 39.0762 28C39.4812 28 39.8465 27.9286 40.1712 27.7863C40.4972 27.6428 40.7713 27.4723 40.994 27.273ZM32.573 26.1808H30.3969L31.4883 23.7582L32.573 26.1808ZM31.7472 23.1343H31.242L29.0658 27.9184H29.6182L30.1844 26.6629H32.7837L33.3433 27.9184H33.9234L31.7472 23.1343ZM25.2024 23.6633H26.8057V23.168H23.0534V23.6633H24.6567V27.9178H25.2024V23.6633Z" fill="#18181B"/>
</svg>
