<svg width="120" height="28" viewBox="0 0 120 28" fill="none" xmlns="http://www.w3.org/2000/svg">
<path d="M29.18 6.73957V2.26113H42.0975V0H26.2728V15.3056H29.18V9.0007V6.73957ZM41.2241 9.0007V6.73957H31.4533V9.0007H41.2241ZM46.6877 15.3056V0H43.7811V15.3056H46.6877ZM70.0105 15.3056V0H67.4751V11.3705L52.1526 0H49.6384V15.3056H52.1743V3.3917L68.5895 15.3056H70.0105ZM75.8683 15.3056V0H72.9611V15.3056H75.8683ZM88.8734 15.3056V2.26173H96.7209V0.000600993H77.9014V2.26173H85.9668V15.3062H88.8734V15.3056ZM110.032 15.3056V9.08776L119.846 0H116.174L108.568 7.00074L100.962 0H97.2461L107.125 9.08776V15.3056H110.032ZM23.4314 15.3056V0H20.9395L11.8473 12.5011L2.7104 0H0V15.3056H2.68867V4.60933L10.5356 15.3056H12.9182L20.7433 4.58711V15.3056H23.4314Z" fill="white"/>
<path d="M96.7586 23.168H93.307V27.9178H96.793V27.4291H93.846V25.7665H96.452V25.2778H93.846V23.6561H96.7586V23.168ZM89.3331 24.6065C89.3331 24.7603 89.3023 24.8983 89.2407 25.0202C89.1792 25.1421 89.0941 25.2454 88.9848 25.3288C88.8755 25.4129 88.7458 25.4771 88.596 25.5222C88.4463 25.5672 88.2822 25.59 88.1053 25.59H86.6384V23.6627H88.1119C88.4983 23.6627 88.7989 23.7456 89.0126 23.9101C89.2263 24.0758 89.3331 24.3075 89.3331 24.6065ZM90.0496 27.9178L88.5828 25.9773C88.7693 25.9455 88.9419 25.8914 89.1013 25.814C89.2607 25.7371 89.3983 25.641 89.5142 25.5258C89.6301 25.4105 89.72 25.2748 89.784 25.1187C89.8474 24.9626 89.8794 24.7849 89.8794 24.5861C89.8794 24.3736 89.8384 24.1803 89.7563 24.0061C89.6742 23.832 89.5583 23.6825 89.4086 23.5582C89.2583 23.434 89.0778 23.3379 88.8665 23.27C88.6546 23.2022 88.4174 23.168 88.1536 23.168H86.1005V27.9178H86.6396V26.0721H88.0039L89.3886 27.9178H90.0496ZM82.7062 23.168H79.2539V27.9178H82.74V27.4291H79.793V25.7665H82.3989V25.2778H79.793V23.6561H82.7062V23.168ZM75.0905 25.7803V27.9178H75.6296V23.168H75.0905V25.2784H72.3348V23.168H71.7958V27.9178H72.3348V25.7803H75.0905ZM66.3557 23.168H62.904V27.9178H66.3901V27.4291H63.443V25.7665H66.049V25.2778H63.443V23.6561H66.3563V23.168H66.3557ZM58.7527 26.9745L55.744 23.168H55.2394V27.9178H55.7646V24.023L58.8486 27.9178H59.2784V23.168H58.7533V26.9745H58.7527ZM51.0277 23.168V27.9178H51.5668V23.168H51.0277ZM44.4829 27.9178H47.7094V27.4225H45.0214V23.168H44.4823V27.9178H44.4829ZM40.9938 27.273V25.3799H39.0223V25.862H40.4753V27.043C40.3117 27.1739 40.1094 27.2862 39.868 27.3786C39.6271 27.4717 39.37 27.5173 39.0971 27.5173C38.8061 27.5173 38.5448 27.4675 38.313 27.3684C38.0806 27.2688 37.8832 27.1307 37.719 26.9547C37.5554 26.7782 37.4292 26.5693 37.3405 26.3273C37.2517 26.0854 37.2071 25.8218 37.2071 25.5366C37.2071 25.27 37.253 25.0172 37.3435 24.7801C37.4347 24.5429 37.5596 24.3358 37.719 24.1592C37.8783 23.9827 38.0691 23.8428 38.2924 23.7384C38.5152 23.6345 38.7585 23.5822 39.0223 23.5822C39.1907 23.5822 39.344 23.5961 39.4828 23.6231C39.6217 23.6501 39.7491 23.6873 39.8644 23.7348C39.9809 23.7822 40.0883 23.8386 40.1885 23.9047C40.2887 23.9701 40.3841 24.044 40.4753 24.125L40.8236 23.7179C40.7052 23.6183 40.5839 23.5294 40.4583 23.4502C40.3334 23.3709 40.1988 23.3043 40.0557 23.2502C39.912 23.1962 39.7575 23.1554 39.5915 23.1277C39.4255 23.1007 39.2426 23.0869 39.0422 23.0869C38.683 23.0869 38.3564 23.1536 38.0631 23.2875C37.7697 23.4207 37.5186 23.6003 37.3091 23.8266C37.0996 24.053 36.9372 24.3153 36.8213 24.6138C36.7048 24.9122 36.6475 25.2244 36.6475 25.5498C36.6475 25.889 36.7036 26.2078 36.8147 26.5068C36.9264 26.8052 37.0876 27.0652 37.2988 27.2874C37.5107 27.5089 37.7648 27.683 38.0631 27.8097C38.3607 27.9364 38.6987 28 39.076 28C39.481 28 39.8462 27.9286 40.171 27.7863C40.497 27.6428 40.771 27.4723 40.9938 27.273ZM32.5728 26.1808H30.3967L31.4881 23.7582L32.5728 26.1808ZM31.747 23.1343H31.2418L29.0656 27.9184H29.6179L30.1842 26.6629H32.7835L33.3431 27.9184H33.9232L31.747 23.1343ZM25.2022 23.6633H26.8055V23.168H23.0532V23.6633H24.6565V27.9178H25.2022V23.6633Z" fill="white"/>
</svg>
