<svg width="120" height="22" viewBox="0 0 120 22" fill="none" xmlns="http://www.w3.org/2000/svg">
<g clip-path="url(#clip0_491_13164)">
<path d="M17.4073 2.17768L14.8474 0.703047L12.2246 5.22683V0H9.27003V8.16631L2.18303 4.07728L0.704774 6.62901L5.23967 9.24732H0V12.1946H8.18637L4.0873 19.2623L6.64529 20.7389L9.27003 16.2132V21.44H12.2246V13.2756L19.3096 17.3647L20.7898 14.811L16.253 12.1946H21.4927V9.24732H13.3082L17.4073 2.17768Z" fill="white"/>
<path d="M31.1906 3.35645L26.0197 17.7444H29.2549L30.5015 14.0451H35.9886L37.2293 17.7444H40.4646L35.3132 3.35645H31.1906ZM31.4066 11.3524L33.25 5.8788L35.0855 11.3524H31.4066Z" fill="white"/>
<path d="M50.5965 11.7108C51.3523 11.3485 51.9353 10.8334 52.3476 10.1695C52.7599 9.50566 52.966 8.71449 52.966 7.79602C52.966 6.87756 52.7599 6.08638 52.3476 5.4225C51.9353 4.75862 51.3542 4.24749 50.6063 3.89107C49.8583 3.53661 48.9769 3.35645 47.9599 3.35645H41.4678V17.7444H44.4361V12.1533H46.254L50.2529 17.7444H53.8789L49.7562 12.0241C50.0487 11.9438 50.3295 11.8381 50.5965 11.7108ZM44.4341 6.13338H47.9364C48.3624 6.13338 48.7256 6.20193 49.0279 6.33901C49.3283 6.47609 49.5599 6.66801 49.717 6.91476C49.874 7.16152 49.9545 7.45723 49.9545 7.79798C49.9545 8.13873 49.874 8.43836 49.717 8.69099C49.5599 8.94557 49.3302 9.13749 49.0279 9.26674C48.7256 9.39795 48.3624 9.46258 47.9364 9.46258H44.4341V6.13338Z" fill="white"/>
<path d="M53.5726 6.13143H57.9623V17.7444H60.9305V6.13143H65.2986V3.35645H53.5726V6.13143Z" fill="white"/>
<path d="M70.0063 3.35645H67.038V17.7444H70.0063V3.35645Z" fill="white"/>
<path d="M80.9449 11.8048V9.02978H74.865V6.13143H80.9449V3.35645H71.8987V17.7444H74.865V11.8048H80.9449Z" fill="white"/>
<path d="M85.6663 3.35645L80.4954 17.7444H83.7306L84.9772 14.0451H90.4643L91.705 17.7444H94.9403L89.7889 3.35645H85.6663ZM85.8842 11.3524L87.7276 5.8788L89.5632 11.3524H85.8842Z" fill="white"/>
<path d="M99.6362 6.27428C100.172 5.95899 100.81 5.80232 101.552 5.80232C102.047 5.80232 102.489 5.8924 102.881 6.06865C103.272 6.24686 103.602 6.51516 103.871 6.87158C104.14 7.228 104.32 7.66667 104.416 8.18759H107.487C107.336 7.06349 106.994 6.11957 106.466 5.3519C105.936 4.58423 105.253 4.00651 104.414 3.61484C103.576 3.22513 102.622 3.0293 101.55 3.0293C100.19 3.0293 99.0119 3.30934 98.0166 3.87139C97.0212 4.43343 96.2477 5.27944 95.6981 6.40941C95.1484 7.53937 94.8735 8.92784 94.8735 10.5709C94.8735 12.2159 95.1503 13.6005 95.7079 14.7226C96.2654 15.8467 97.0389 16.6849 98.0362 17.241H98.0382C99.0335 17.7972 100.186 18.0733 101.489 18.0733C102.589 18.0733 103.557 17.856 104.395 17.4251C105.233 16.9943 105.914 16.3774 106.435 15.5745C106.957 14.7716 107.3 13.8178 107.465 12.7075H104.395C104.324 13.2558 104.161 13.7219 103.9 14.1057C103.639 14.4896 103.307 14.7833 102.901 14.9889C102.495 15.1946 102.025 15.2964 101.489 15.2964C100.789 15.2964 100.174 15.1358 99.644 14.8146C99.114 14.4935 98.6997 13.9784 98.3974 13.2734C98.0951 12.5684 97.9439 11.6715 97.9439 10.5494C97.9439 9.42722 98.0912 8.51267 98.3876 7.80571C98.684 7.09874 99.1002 6.58957 99.6362 6.27428Z" fill="white"/>
<path d="M120 3.35645H108.276V6.13143H112.664V17.7444H115.632V6.13143H120V3.35645Z" fill="white"/>
</g>
<defs>
<clipPath id="clip0_491_13164">
<rect width="120" height="21.44" fill="white"/>
</clipPath>
</defs>
</svg>
