<svg width="120" height="22" viewBox="0 0 120 22" fill="none" xmlns="http://www.w3.org/2000/svg">
<g clip-path="url(#clip0_9_631)">
<path d="M17.4073 2.17768L14.8474 0.703047L12.2246 5.22683V0H9.27003V8.16631L2.18303 4.07728L0.704774 6.62901L5.23967 9.24732H0V12.1946H8.18637L4.0873 19.2623L6.64529 20.7389L9.27003 16.2132V21.44H12.2246V13.2756L19.3096 17.3647L20.7898 14.811L16.253 12.1946H21.4927V9.24732H13.3082L17.4073 2.17768Z" fill="#18181B"/>
<path d="M31.1907 3.35669L26.0197 17.7447H29.255L30.5016 14.0454H35.9886L37.2293 17.7447H40.4646L35.3133 3.35669H31.1907ZM31.4066 11.3526L33.25 5.87904L35.0856 11.3526H31.4066Z" fill="#18181B"/>
<path d="M50.5965 11.711C51.3523 11.3487 51.9353 10.8337 52.3476 10.1698C52.7599 9.5059 52.966 8.71473 52.966 7.79627C52.966 6.8778 52.7599 6.08663 52.3476 5.42275C51.9353 4.75887 51.3542 4.24774 50.6063 3.89132C49.8583 3.53686 48.9769 3.35669 47.9599 3.35669H41.4678V17.7447H44.4361V12.1536H46.254L50.2529 17.7447H53.8789L49.7562 12.0243C50.0487 11.944 50.3295 11.8383 50.5965 11.711ZM44.4341 6.13363H47.9364C48.3624 6.13363 48.7256 6.20217 49.0279 6.33925C49.3283 6.47634 49.5599 6.66826 49.717 6.91501C49.874 7.16176 49.9545 7.45747 49.9545 7.79822C49.9545 8.13898 49.874 8.4386 49.717 8.69123C49.5599 8.94582 49.3302 9.13773 49.0279 9.26698C48.7256 9.39819 48.3624 9.46282 47.9364 9.46282H44.4341V6.13363Z" fill="#18181B"/>
<path d="M53.5726 6.13167H57.9623V17.7447H60.9305V6.13167H65.2986V3.35669H53.5726V6.13167Z" fill="#18181B"/>
<path d="M70.0062 3.35669H67.0379V17.7447H70.0062V3.35669Z" fill="#18181B"/>
<path d="M80.9449 11.805V9.03003H74.865V6.13167H80.9449V3.35669H71.8987V17.7447H74.865V11.805H80.9449Z" fill="#18181B"/>
<path d="M85.6663 3.35669L80.4954 17.7447H83.7306L84.9772 14.0454H90.4643L91.705 17.7447H94.9403L89.7889 3.35669H85.6663ZM85.8842 11.3526L87.7276 5.87904L89.5632 11.3526H85.8842Z" fill="#18181B"/>
<path d="M99.6362 6.27452C100.172 5.95923 100.81 5.80256 101.552 5.80256C102.047 5.80256 102.489 5.89265 102.881 6.0689C103.272 6.24711 103.602 6.5154 103.871 6.87182C104.14 7.22824 104.32 7.66691 104.416 8.18783H107.487C107.336 7.06374 106.994 6.11981 106.466 5.35214C105.936 4.58447 105.253 4.00676 104.414 3.61509C103.576 3.22538 102.622 3.02954 101.55 3.02954C100.19 3.02954 99.0119 3.30958 98.0166 3.87163C97.0212 4.43368 96.2477 5.27968 95.6981 6.40965C95.1484 7.53962 94.8735 8.92809 94.8735 10.5711C94.8735 12.2162 95.1503 13.6007 95.7079 14.7228C96.2654 15.8469 97.0389 16.6851 98.0362 17.2413H98.0382C99.0335 17.7974 100.186 18.0736 101.489 18.0736C102.589 18.0736 103.557 17.8562 104.395 17.4254C105.233 16.9945 105.914 16.3776 106.435 15.5747C106.957 14.7718 107.3 13.8181 107.465 12.7077H104.395C104.324 13.256 104.161 13.7221 103.9 14.106C103.639 14.4898 103.307 14.7835 102.901 14.9892C102.495 15.1948 102.025 15.2966 101.489 15.2966C100.789 15.2966 100.174 15.1361 99.644 14.8149C99.114 14.4937 98.6997 13.9787 98.3974 13.2737C98.0951 12.5687 97.9439 11.6717 97.9439 10.5496C97.9439 9.42746 98.0912 8.51292 98.3876 7.80595C98.684 7.09899 99.1002 6.58982 99.6362 6.27452Z" fill="#18181B"/>
<path d="M120 3.35669H108.276V6.13167H112.664V17.7447H115.632V6.13167H120V3.35669Z" fill="#18181B"/>
</g>
<defs>
<clipPath id="clip0_9_631">
<rect width="120" height="21.44" fill="white"/>
</clipPath>
</defs>
</svg>
