<svg width="100" height="29" viewBox="0 0 100 29" fill="none" xmlns="http://www.w3.org/2000/svg">
<path d="M12.9905 8.97086C12.9905 9.00324 12.9317 9.00324 12.9317 8.97086C11.7462 7.35799 9.71346 6.37202 7.41012 6.37202C3.17408 6.37202 0 9.65957 0 13.989C0 18.292 3.27704 21.6472 7.41012 21.6472C9.71346 21.6472 11.7462 20.6554 12.9317 19.0484C12.9317 19.016 12.9905 19.016 12.9905 19.0484V20.5288C12.9905 20.9821 13.3523 21.3441 13.7789 21.3441H14.4349C14.8967 21.3441 15.2585 20.9821 15.2585 20.5288V7.49044C15.2585 7.06073 14.8967 6.70166 14.4349 6.70166H13.7789C13.3494 6.70166 12.9905 7.06367 12.9905 7.49044V8.97086ZM9.47813 19.1514C5.67158 20.4287 2.29452 17.671 2.29452 13.989C2.22686 11.0046 4.6214 8.57648 7.58074 8.57648C10.8313 8.54116 13.3523 11.3666 12.9581 14.5865C12.8317 16.6526 11.452 18.4597 9.47813 19.1514ZM40.2394 6.37202C35.9033 6.37202 32.7528 9.59188 32.7528 13.989C32.7528 18.4274 35.9033 21.6737 40.2394 21.6737C42.728 21.6737 44.9608 20.5965 46.3051 18.7246C46.567 18.3626 46.4405 17.8328 46.011 17.6386L45.4903 17.412C45.0961 17.2442 44.6666 17.3443 44.4077 17.671C43.3576 18.8571 41.8455 19.5134 40.2659 19.4781C37.4507 19.4781 35.4768 17.771 35.0826 15.0397C35.0826 15.0074 35.1179 15.0074 35.1503 15.0074H46.8376C47.1641 15.0074 47.4259 14.7454 47.4259 14.4187L47.4612 13.989C47.423 9.42412 44.5342 6.37202 40.2394 6.37202ZM40.2394 8.57648C42.9604 8.57648 44.8255 10.2482 45.1638 12.9383C45.1638 12.9707 45.1638 12.9707 45.1314 12.9707H35.1503C35.1503 12.9707 35.1179 12.9707 35.1179 12.9383C35.5415 10.2158 37.4507 8.57648 40.2394 8.57648ZM58.7838 6.37202C56.5157 6.37202 54.4477 7.42274 53.2975 9.03561C53.2652 9.03561 53.2299 9.03561 53.2299 9.0003V7.45217C53.2299 7.05779 52.9034 6.69577 52.4827 6.69577H51.7267C51.2972 6.69577 50.9707 7.02247 50.9383 7.45217V27.5513C50.9383 27.9721 51.3001 28.3342 51.7267 28.3342H52.4827C52.871 28.3342 53.2299 27.9721 53.2299 27.5513V19.0484C53.2299 19.0484 53.2622 19.016 53.2975 19.0484C54.483 20.6554 56.5157 21.6472 58.7838 21.6472C63.0198 21.6472 66.2292 18.395 66.2292 14.0567C66.2263 9.69195 63.0169 6.37202 58.7838 6.37202ZM56.7746 8.8708C60.3194 7.62582 64.0671 10.3159 63.9671 14.092C64.0347 17.0499 61.6049 19.481 58.6485 19.481C55.3979 19.5134 52.8681 16.6909 53.2622 13.4357C53.3976 11.3666 54.7743 9.5595 56.7746 8.8708ZM71.8743 0.991857H71.4213C70.9271 0.991857 70.53 1.37742 70.53 1.87482V6.66634L70.4947 6.69872H68.8238C68.3266 6.69872 67.9089 7.0931 67.9089 7.59051V7.81713C67.9089 8.31159 68.3296 8.70009 68.8238 8.70009H70.4947C70.4947 8.70009 70.53 8.70009 70.53 8.73246V20.4611C70.53 20.9585 70.9241 21.3441 71.4213 21.3441H71.8743C72.4038 21.3441 72.798 20.9585 72.798 20.4611V8.73541C72.798 8.70303 72.798 8.70303 72.8304 8.70303H75.1925C75.6809 8.70303 76.075 8.31747 76.075 7.82007V7.59345C76.075 7.09899 75.6809 6.70166 75.1925 6.70166H72.8304C72.798 6.70166 72.798 6.66928 72.798 6.66928V1.87482C72.798 1.38036 72.4038 0.991857 71.8743 0.991857ZM79.914 0C78.9991 0 78.2754 0.688708 78.2754 1.5805C78.2754 2.42814 79.0314 3.11979 79.914 3.11979C80.8965 3.11979 81.6201 2.46346 81.6201 1.5805C81.6201 0.656333 80.8965 0 79.914 0ZM79.7551 21.3441H80.1169C80.6376 21.3441 81.0671 20.9232 81.0671 20.3934V7.6582C81.0671 7.12842 80.6376 6.69872 80.1169 6.69872H79.7551C79.2256 6.69872 78.7961 7.12842 78.7961 7.6582V20.3934C78.7961 20.9232 79.2256 21.3441 79.7551 21.3441ZM92.3249 6.37202C87.8889 6.37202 84.6795 9.59188 84.6795 13.989C84.6795 18.0653 87.5035 21.1851 91.4012 21.6148C96.4257 22.1711 100.694 17.671 99.9057 12.6793C99.3497 8.97086 96.3227 6.37202 92.3249 6.37202ZM92.3249 19.4781C89.242 19.4781 86.974 17.1412 86.974 13.989C86.974 11.0723 88.9155 8.90317 91.6719 8.60885C94.9489 8.28216 97.8053 10.9045 97.7053 14.2245C97.6759 17.1412 95.2725 19.5134 92.3249 19.4781ZM29.8287 6.70166H28.6874C28.3255 6.70166 27.999 6.86942 27.796 7.16374L24.8455 11.7963C24.8102 11.7963 24.7779 11.7963 24.7779 11.7963L21.7862 7.16374C21.5596 6.86942 21.2331 6.70166 20.8713 6.70166H19.7211C19.2592 6.70166 19.0327 7.19906 19.2916 7.59345L23.4335 13.73C23.4335 13.73 23.4335 13.73 23.4335 13.7624L18.6709 20.4611C18.4091 20.8231 18.6709 21.3441 19.1327 21.3441H20.1829C20.5448 21.3441 20.8713 21.1851 21.0978 20.8908L24.7779 15.6696C24.7779 15.6696 24.8102 15.6696 24.8455 15.6696L28.4491 20.8908C28.6521 21.1851 28.9786 21.3441 29.3404 21.3441H30.4583C30.9113 21.3441 31.1731 20.8555 30.9113 20.4611L26.1899 13.7271V13.6623L30.2906 7.59345C30.5524 7.19612 30.2906 6.70166 29.8287 6.70166Z" fill="#18181B"/>
</svg>
