<svg width="110" height="36" viewBox="0 0 110 36" fill="none" xmlns="http://www.w3.org/2000/svg">
<g clip-path="url(#clip0_491_13175)">
<path d="M43.7766 32.0257H42.7725V35.1452H43.3233V34.0088H43.6696C44.3747 34.0088 44.8185 33.65 44.8185 33.0299C44.8532 32.5105 44.4628 32.0572 43.9403 32.0226C43.8868 32.0194 43.8301 32.0194 43.7766 32.0257ZM43.7042 33.4737H43.3233V32.564H43.7546C44.0694 32.564 44.2456 32.7182 44.2456 33.0078C44.2456 33.2974 44.0505 33.4737 43.7042 33.4737Z" fill="white"/>
<path d="M49.3952 31.9912L47.9724 35.139H48.602L48.8412 34.5787H50.1003L50.3522 35.139H50.9817L49.5589 31.9912H49.3952ZM49.049 34.0845L49.4676 33.0678L49.8989 34.0845H49.049Z" fill="white"/>
<path d="M56.8054 34.3578L56.6385 34.0934C56.5473 33.9297 56.415 33.7881 56.2545 33.6873C56.5787 33.596 56.7959 33.2939 56.7802 32.957C56.7802 32.3275 56.3741 32.0127 55.6816 32.0127H54.7625V35.1322H55.3165V33.9014H55.5305C55.7635 33.8699 55.9901 33.999 56.0814 34.2162L56.3962 34.7167C56.4906 34.8615 56.6102 35.0314 56.6826 35.1227L56.7078 35.1479H57.4255L57.3311 35.0283C57.1422 34.8174 56.9659 34.5939 56.8054 34.3578ZM55.669 33.3883H55.3165V32.551H55.6753C56.1192 32.551 56.2262 32.743 56.2262 32.957C56.2262 33.1711 56.1003 33.3883 55.669 33.3883Z" fill="white"/>
<path d="M61.5521 32.0293H61.0012V35.1488H61.5521V32.0293Z" fill="white"/>
<path d="M66.5256 33.2691L66.3461 33.2093C66.0723 33.1149 66.0125 32.9953 66.0125 32.8505C66.0125 32.6584 66.1667 32.5357 66.4185 32.5357C66.6641 32.5357 66.9033 32.6018 67.111 32.7277L67.2055 32.7749V32.1642H67.1583C66.919 32.0667 66.6641 32.0163 66.4059 32.0194C65.918 31.988 65.4931 32.3594 65.4616 32.8473C65.4616 32.8536 65.4616 32.8631 65.4616 32.8693C65.4616 33.288 65.6882 33.5619 66.1667 33.7413L66.3713 33.8137C66.7428 33.9459 66.8151 34.0875 66.8151 34.2796C66.8151 34.5188 66.6483 34.6636 66.3493 34.6636C66.0691 34.6636 65.7921 34.5786 65.5592 34.4244L65.4521 34.3646V34.9941L65.4868 35.0193C65.7512 35.1484 66.0408 35.2145 66.3367 35.2113C66.8561 35.2585 67.3157 34.8745 67.3629 34.3551C67.366 34.3331 67.366 34.311 67.366 34.2922C67.3755 33.7854 67.111 33.4863 66.5256 33.2691Z" fill="white"/>
<path d="M95.6082 6.94745L95.8002 6.40918H92.3691L92.5958 6.96005C92.8224 7.51091 92.8098 8.26324 92.8098 9.12259V22.8218C92.8098 23.6938 92.8098 24.4366 92.5958 25.0095L92.3817 25.5604H95.8002L95.6082 25.0221C95.3816 24.3768 95.3816 23.5269 95.3816 22.5228V9.39644C95.4068 8.40489 95.4068 7.56757 95.6082 6.94745Z" fill="white"/>
<path d="M109.273 23.4451C108.467 23.7473 107.614 23.9015 106.755 23.8984H101.863V15.3269H107.815L108.366 13.753H101.863V8.03345H106.106C106.871 7.99882 107.633 8.12788 108.341 8.41748L109.153 8.75114L108.7 6.40918H98.8127L99.0268 6.94745C99.2534 7.55813 99.2534 8.40489 99.2534 9.39959V22.5385C99.2534 24.0558 99.2534 24.38 99.0268 25.0253L98.8348 25.5636H109.389L110 23.1618L109.273 23.4451Z" fill="white"/>
<path d="M49.4803 8.92091V9.39937V22.5257C49.4803 24.043 49.4803 24.3798 49.2757 25.0251L49.0962 25.5633H55.4548C61.1208 25.5633 64.3001 20.5552 64.3001 15.7139C64.3001 10.5861 60.7022 6.41211 54.9889 6.41211H49.071L49.2851 6.97242C49.5023 7.46033 49.4897 8.15599 49.4803 8.92091ZM51.967 8.02378H54.586C58.6498 8.02378 61.6402 11.6815 61.6402 16.7275C61.6402 20.3002 59.8239 23.9107 55.3635 23.9107H51.9639L51.967 8.02378Z" fill="white"/>
<path d="M45.1048 6.40918H44.5665L44.7932 6.96949C44.9506 7.50147 45.0198 8.05233 44.9978 8.60635V18.5629C44.9978 21.6823 42.7502 23.8354 40.062 23.8354C37.421 23.8354 35.3403 21.7327 35.3403 18.5629V9.10055C35.2962 8.38285 35.3592 7.65886 35.5323 6.96005L35.7118 6.42177H32.4443L32.6238 6.96005C32.8158 7.49832 32.8032 8.23805 32.8032 9.10055V18.6636C32.8032 23.039 35.8754 25.9917 39.678 25.9917C43.4805 25.9917 46.5024 22.9887 46.5024 18.6132V8.60949C46.4835 8.05233 46.5433 7.49832 46.6819 6.96005L46.8739 6.40918H45.1048Z" fill="white"/>
<path d="M24.5781 6.0625H24.0272C24.0272 6.0625 18.9907 18.2571 17.442 22.3681C16.9793 23.5297 16.3245 24.6031 15.5061 25.5474H18.0401C18.0401 25.5474 19.3905 22.0691 20.7881 18.4585H26.7689C28.1319 22.0691 29.4572 25.5474 29.4572 25.5474H33.0299C32.1328 24.6503 31.4277 23.58 30.9618 22.3996L24.5781 6.0625ZM21.3516 17.0011C22.51 14.0139 23.5739 11.2753 23.8037 10.7496C24.0178 11.2879 25.0628 14.0139 26.196 17.0011H21.3516Z" fill="white"/>
<path d="M87.9716 23.8947H84.2163V9.32665C84.1785 8.55859 84.2352 7.78738 84.3831 7.0319C84.4303 6.86507 84.5877 6.40234 84.5877 6.40234H81.1692L81.3738 6.94062C81.5879 7.55129 81.5879 8.39805 81.5879 9.39276V22.5191C81.5879 24.0489 81.5879 24.3732 81.3738 25.0185L81.1818 25.5567H90.6252L91.2359 23.1644L90.5182 23.4383C89.7092 23.7593 88.8435 23.9136 87.9716 23.8947Z" fill="white"/>
<path d="M9.6008 24.1592C6.24209 24.1592 2.96523 20.6966 2.96523 15.0621C2.96523 10.8409 5.49921 7.69935 9.6008 7.69935C12.0624 7.69935 14.0077 9.38342 15.3518 12.0402L15.1 7.71194C13.4757 6.60706 11.5524 6.02472 9.58821 6.03731C4.34082 6.03731 0 10.759 0 16.3306C0 21.7448 4.28101 25.8213 9.58821 25.8213C11.5682 25.8118 13.4883 25.1224 15.0245 23.8728L15.5376 20.6085C13.8189 22.9284 12.5408 24.1592 9.6008 24.1592Z" fill="white"/>
<path d="M78.4181 22.4154L72.0343 6.0752H71.474L64.8983 22.3808C64.5929 23.2433 64.1428 24.046 63.5699 24.7606L62.9592 25.5727H65.4932C65.4932 25.5727 66.8436 22.0944 68.2318 18.4838H74.2126C75.5882 22.0944 76.9009 25.5727 76.9009 25.5727H80.4988L79.6867 24.6284C79.1358 23.9705 78.7077 23.2213 78.4181 22.4154ZM68.8299 17.0012C69.9883 14.014 71.0648 11.2754 71.2694 10.7497C71.4835 11.288 72.5286 14.014 73.6618 17.0012H68.8299Z" fill="white"/>
<path d="M92.6461 4.06355C95.1076 4.29019 96.9145 2.48965 96.6878 0.0217675C94.2105 -0.226909 92.4068 1.59252 92.6461 4.06355Z" fill="white"/>
</g>
<defs>
<clipPath id="clip0_491_13175">
<rect width="110" height="35.2145" fill="white"/>
</clipPath>
</defs>
</svg>
