<svg width="110" height="36" viewBox="0 0 110 36" fill="none" xmlns="http://www.w3.org/2000/svg">
<g clip-path="url(#clip0_9_642)">
<path d="M43.7765 32.0257H42.7723V35.1452H43.3232V34.0088H43.6695C44.3746 34.0088 44.8184 33.65 44.8184 33.0299C44.853 32.5105 44.4627 32.0572 43.9402 32.0226C43.8867 32.0194 43.83 32.0194 43.7765 32.0257ZM43.7041 33.4737H43.3232V32.564H43.7545C44.0692 32.564 44.2455 32.7182 44.2455 33.0078C44.2455 33.2974 44.0503 33.4737 43.7041 33.4737Z" fill="#18181B"/>
<path d="M49.3953 31.9912L47.9725 35.139H48.6021L48.8413 34.5787H50.1005L50.3523 35.139H50.9818L49.559 31.9912H49.3953ZM49.0491 34.0845L49.4677 33.0678L49.899 34.0845H49.0491Z" fill="#18181B"/>
<path d="M56.8053 34.3583L56.6384 34.0939C56.5471 33.9302 56.4149 33.7885 56.2544 33.6878C56.5786 33.5965 56.7958 33.2943 56.7801 32.9575C56.7801 32.328 56.374 32.0132 55.6815 32.0132H54.7623V35.1327H55.3163V33.9019H55.5304C55.7633 33.8704 55.99 33.9994 56.0813 34.2166L56.396 34.7171C56.4905 34.8619 56.6101 35.0319 56.6825 35.1232L56.7077 35.1484H57.4254L57.3309 35.0288C57.1421 34.8179 56.9658 34.5944 56.8053 34.3583ZM55.6689 33.3888H55.3163V32.5515H55.6752C56.119 32.5515 56.2261 32.7435 56.2261 32.9575C56.2261 33.1716 56.1001 33.3888 55.6689 33.3888Z" fill="#18181B"/>
<path d="M61.5521 32.0288H61.0013V35.1483H61.5521V32.0288Z" fill="#18181B"/>
<path d="M66.5257 33.2691L66.3463 33.2093C66.0724 33.1149 66.0126 32.9953 66.0126 32.8505C66.0126 32.6584 66.1668 32.5357 66.4186 32.5357C66.6642 32.5357 66.9034 32.6018 67.1112 32.7277L67.2056 32.7749V32.1642H67.1584C66.9192 32.0667 66.6642 32.0163 66.4061 32.0194C65.9181 31.988 65.4932 32.3594 65.4617 32.8473C65.4617 32.8536 65.4617 32.8631 65.4617 32.8693C65.4617 33.288 65.6884 33.5619 66.1668 33.7413L66.3714 33.8137C66.7429 33.9459 66.8153 34.0875 66.8153 34.2796C66.8153 34.5188 66.6484 34.6636 66.3494 34.6636C66.0692 34.6636 65.7922 34.5786 65.5593 34.4244L65.4523 34.3646V34.9941L65.4869 35.0193C65.7513 35.1484 66.0409 35.2145 66.3368 35.2113C66.8562 35.2585 67.3158 34.8745 67.363 34.3551C67.3661 34.3331 67.3661 34.311 67.3661 34.2922C67.3756 33.7854 67.1112 33.4863 66.5257 33.2691Z" fill="#18181B"/>
<path d="M95.6082 6.94721L95.8002 6.40894H92.3691L92.5958 6.9598C92.8224 7.51067 92.8098 8.26299 92.8098 9.12234V22.8216C92.8098 23.6935 92.8098 24.4364 92.5958 25.0093L92.3817 25.5602H95.8002L95.6082 25.0219C95.3816 24.3766 95.3816 23.5267 95.3816 22.5225V9.3962C95.4068 8.40464 95.4068 7.56733 95.6082 6.94721Z" fill="#18181B"/>
<path d="M109.273 23.4448C108.467 23.747 107.614 23.9013 106.755 23.8981H101.863V15.3267H107.815L108.366 13.7528H101.863V8.0332H106.106C106.871 7.99858 107.633 8.12764 108.341 8.41723L109.153 8.7509L108.7 6.40894H98.8127L99.0268 6.94721C99.2534 7.55788 99.2534 8.40464 99.2534 9.39935V22.5383C99.2534 24.0555 99.2534 24.3797 99.0268 25.025L98.8348 25.5633H109.389L110 23.1615L109.273 23.4448Z" fill="#18181B"/>
<path d="M49.4803 8.92091V9.39937V22.5257C49.4803 24.043 49.4803 24.3798 49.2757 25.0251L49.0963 25.5633H55.4549C61.1209 25.5633 64.3002 20.5552 64.3002 15.7139C64.3002 10.5861 60.7022 6.41211 54.989 6.41211H49.0711L49.2852 6.97242C49.5024 7.46033 49.4898 8.15599 49.4803 8.92091ZM51.9671 8.02378H54.5861C58.6499 8.02378 61.6403 11.6815 61.6403 16.7275C61.6403 20.3002 59.824 23.9107 55.3636 23.9107H51.9639L51.9671 8.02378Z" fill="#18181B"/>
<path d="M45.1049 6.40894H44.5666L44.7932 6.96924C44.9506 7.50122 45.0199 8.05209 44.9978 8.6061V18.5626C44.9978 21.6821 42.7503 23.8352 40.0621 23.8352C37.4211 23.8352 35.3404 21.7324 35.3404 18.5626V9.10031C35.2963 8.38261 35.3593 7.65861 35.5324 6.9598L35.7118 6.42153H32.4444L32.6238 6.9598C32.8158 7.49808 32.8032 8.23781 32.8032 9.10031V18.6633C32.8032 23.0388 35.8755 25.9914 39.6781 25.9914C43.4806 25.9914 46.5025 22.9884 46.5025 18.613V8.60925C46.4836 8.05209 46.5434 7.49808 46.6819 6.9598L46.8739 6.40894H45.1049Z" fill="#18181B"/>
<path d="M24.5781 6.06274H24.0272C24.0272 6.06274 18.9907 18.2573 17.442 22.3684C16.9793 23.5299 16.3245 24.6033 15.5061 25.5476H18.0401C18.0401 25.5476 19.3905 22.0693 20.7881 18.4588H26.7689C28.1319 22.0693 29.4572 25.5476 29.4572 25.5476H33.0299C32.1328 24.6505 31.4277 23.5803 30.9618 22.3998L24.5781 6.06274ZM21.3516 17.0014C22.51 14.0141 23.5739 11.2755 23.8037 10.7498C24.0178 11.2881 25.0628 14.0141 26.196 17.0014H21.3516Z" fill="#18181B"/>
<path d="M87.9717 23.8949H84.2163V9.3269C84.1786 8.55883 84.2352 7.78762 84.3832 7.03215C84.4304 6.86532 84.5878 6.40259 84.5878 6.40259H81.1693L81.3739 6.94086C81.5879 7.55154 81.5879 8.3983 81.5879 9.393V22.5193C81.5879 24.0492 81.5879 24.3734 81.3739 25.0187L81.1818 25.557H90.6253L91.2359 23.1646L90.5182 23.4385C89.7092 23.7596 88.8436 23.9138 87.9717 23.8949Z" fill="#18181B"/>
<path d="M9.6008 24.1595C6.24209 24.1595 2.96523 20.6969 2.96523 15.0623C2.96523 10.8411 5.49921 7.69959 9.6008 7.69959C12.0624 7.69959 14.0077 9.38367 15.3518 12.0404L15.1 7.71218C13.4757 6.60731 11.5524 6.02496 9.58821 6.03755C4.34082 6.03755 0 10.7593 0 16.3309C0 21.7451 4.28101 25.8215 9.58821 25.8215C11.5682 25.8121 13.4883 25.1227 15.0245 23.873L15.5376 20.6087C13.8189 22.9287 12.5408 24.1595 9.6008 24.1595Z" fill="#18181B"/>
<path d="M78.4181 22.4154L72.0343 6.0752H71.474L64.8983 22.3808C64.5929 23.2433 64.1428 24.046 63.5699 24.7606L62.9592 25.5727H65.4932C65.4932 25.5727 66.8436 22.0944 68.2318 18.4838H74.2126C75.5882 22.0944 76.9009 25.5727 76.9009 25.5727H80.4988L79.6867 24.6284C79.1358 23.9705 78.7077 23.2213 78.4181 22.4154ZM68.8299 17.0012C69.9883 14.014 71.0648 11.2754 71.2694 10.7497C71.4835 11.288 72.5286 14.014 73.6618 17.0012H68.8299Z" fill="#18181B"/>
<path d="M92.6462 4.06379C95.1078 4.29043 96.9146 2.48989 96.688 0.0220116C94.2106 -0.226665 92.4069 1.59277 92.6462 4.06379Z" fill="#18181B"/>
</g>
<defs>
<clipPath id="clip0_9_642">
<rect width="110" height="35.2145" fill="white"/>
</clipPath>
</defs>
</svg>
