<svg width="67" height="21" viewBox="0 0 67 21" fill="none" xmlns="http://www.w3.org/2000/svg">
<path d="M23.8246 2.76724C23.2656 2.51489 22.4556 2.33709 21.7597 2.33135C21.0923 2.34282 20.442 2.48621 19.8545 2.72136C19.632 2.79019 19.1072 3.15152 19.0844 3.16872C18.1774 3.87418 17.704 4.98685 17.6583 6.34615C17.6583 6.39203 17.6241 7.26381 17.6241 7.3097V14.5765H15.4565V7.12043C15.4451 6.71895 15.4793 6.27158 15.485 5.7726C15.5364 4.00609 16.2779 2.50341 17.7439 1.45383C18.6109 0.828672 19.5579 0.496018 20.5504 0.352633C20.7329 0.31822 21.5372 0.266602 21.7369 0.266602C21.965 0.266602 22.1875 0.266602 22.4157 0.278073C23.1002 0.312485 23.7391 0.438664 24.3209 0.645139L23.8246 2.76724ZM51.5529 8.02662V0.570579H49.3853V7.83735C49.3853 7.8775 49.3511 8.75502 49.3511 8.8009C49.3225 9.63254 49.0887 10.9918 48.079 11.8464C47.9935 11.921 47.6683 12.2307 47.1721 12.4142C46.5674 12.6608 45.9171 12.81 45.2212 12.8157C44.531 12.81 43.875 12.6608 43.2704 12.4142C42.7798 12.2249 42.4489 11.921 42.3634 11.8464C41.3537 10.9918 41.1199 9.63254 41.0913 8.8009C41.0913 8.75502 41.0628 7.88324 41.0571 7.83735V0.564844H38.8895V8.02089C38.8838 8.14133 38.9123 9.29989 38.9123 9.36871C38.9523 10.7567 39.4257 11.9841 40.3384 12.9591C41.3423 14.0832 42.814 14.7715 44.5709 14.8632C44.7991 14.8747 44.9873 14.8804 45.2098 14.8804C45.438 14.8804 45.6205 14.8747 45.8487 14.8632C47.6056 14.7715 49.0773 14.0832 50.0812 12.9591C50.9939 11.9841 51.4673 10.7624 51.5073 9.36871C51.5301 9.29989 51.5586 8.14133 51.5529 8.02662ZM64.7753 7.6022C64.7753 10.4929 62.602 12.8329 59.7898 12.8329C56.8122 12.8329 54.8043 10.4929 54.8043 7.6022C54.8043 4.71155 56.8122 2.18223 59.7898 2.3715C62.7275 2.3715 64.7753 4.71155 64.7753 7.6022ZM66.9943 7.57352C67.057 3.69638 64.1764 0.272337 59.613 0.272337C54.9355 0.501754 52.7679 3.98889 52.7679 7.57352V20.547H54.9355V13.0222C56.0878 14.1693 57.6964 14.9091 59.7613 14.8747C64.2163 14.9779 67.1654 11.2442 66.9943 7.57352ZM30.6583 2.34856C27.6693 2.30268 25.5587 4.68861 25.5587 7.57352C25.5587 10.4584 27.6522 12.7985 30.6583 12.7985C33.7557 12.7985 35.7351 10.4584 35.7351 7.57352C35.7351 4.68861 33.8013 2.36577 30.6583 2.34856ZM30.6583 14.8747C26.46 14.8747 23.2998 11.6055 23.2998 7.57352C23.2998 3.54153 26.4771 0.209248 30.6583 0.272337C35.0449 0.289543 38.0168 3.54153 38.0168 7.57352C38.0168 11.6055 34.9821 14.8747 30.6583 14.8747ZM13.7224 13.4294C13.6882 12.3454 13.711 7.52764 13.7167 6.97704C13.7338 5.65216 11.5263 10.9861 11.5605 11.8694C11.5776 12.4142 11.5719 13.0394 11.5605 13.7506C11.5149 16.7215 9.64389 18.7117 6.42099 18.7117C5.83916 18.7232 5.22311 18.6601 4.60705 18.5224C3.48331 18.2701 2.3824 17.6908 1.45261 17.1115L1.4412 17.123C1.00197 17.9432 0.5 18.8666 0.5 18.8666C2.00592 19.9161 3.76282 20.7248 6.68339 20.7191C10.1915 20.7248 13.865 18.4249 13.7224 13.4294Z" fill="white"/>
</svg>
