<svg width="150" height="21" viewBox="0 0 150 21" fill="none" xmlns="http://www.w3.org/2000/svg">
<g clip-path="url(#clip0_9_618)">
<path fill-rule="evenodd" clip-rule="evenodd" d="M14.4067 20.6151C12.5956 20.3117 10.8066 19.8645 9.23412 19.3294C7.65967 18.7964 6.30183 18.1755 5.16862 17.5247C4.03542 16.8738 3.12685 16.193 2.41083 15.5103C0.302871 13.4799 -0.282784 11.4615 0.11835 9.45309C0.40516 8.11349 1.17935 6.75392 2.70967 5.39235C3.47985 4.71157 4.44658 4.03278 5.63996 3.39193C6.83333 2.75108 8.25535 2.14816 9.88596 1.63707C11.5186 1.12399 13.3618 0.702741 15.3454 0.419248C17.331 0.133759 19.453 -0.00998387 21.577 -1.72702e-06C23.701 0.0119768 25.825 0.179677 27.7966 0.483134C29.7682 0.786591 31.5893 1.22381 33.1958 1.74887C34.8024 2.27393 36.1963 2.88683 37.3616 3.53168C38.5269 4.17653 39.4616 4.85731 40.2037 5.53809C42.3838 7.56447 43.0096 9.58485 42.6626 11.5973C42.4079 12.9369 41.6698 14.2904 40.1916 15.65C39.4475 16.3308 38.5089 17.0116 37.3436 17.6564C36.1803 18.3013 34.7924 18.9102 33.1838 19.4332C31.5753 19.9563 29.7501 20.3915 27.9009 20.679L21.3744 5.80362L14.4067 20.6151ZM34.2047 14.5739C35.1895 14.1207 35.9958 13.6416 36.6516 13.1605C38.551 11.751 39.267 10.3395 39.2931 8.95398C39.2891 7.53652 38.6212 6.16896 36.77 4.74751C36.1301 4.26437 35.3399 3.78323 34.3752 3.32605C33.4105 2.86887 32.2752 2.43764 30.9696 2.0683C29.6659 1.69696 28.1937 1.38752 26.6052 1.16991C25.0167 0.952295 23.3119 0.830513 21.6051 0.816538C19.8983 0.804559 18.1894 0.900388 16.5869 1.09604C14.9844 1.29169 13.4901 1.58317 12.1544 1.93853C10.8186 2.2939 9.64327 2.71514 8.64044 3.16633C7.6376 3.61753 6.80726 4.09867 6.13335 4.57981C4.18785 5.98929 3.44174 7.41474 3.3916 8.80225C3.37155 10.2177 4.02138 11.5893 5.82047 13.0047C6.44423 13.4879 7.22043 13.973 8.16911 14.4342C9.11779 14.8934 10.239 15.3266 11.3862 15.666L21.4787 4.07471L30.8693 15.7838C32.0566 15.4504 33.2199 15.0271 34.2047 14.5739Z" fill="#18181B"/>
<path fill-rule="evenodd" clip-rule="evenodd" d="M148.797 14.8595H149.31V14.7597C149.21 14.7597 149.132 14.7257 149.087 14.6379L148.696 13.995C148.909 13.9072 149.053 13.7734 149.053 13.5399C149.053 13.1186 148.63 13.0407 148.307 13.0407H147.361V13.1306H147.449C147.593 13.1306 147.615 13.1965 147.615 13.3183V14.572C147.615 14.7497 147.537 14.7597 147.371 14.7597V14.8595H148.295V14.7597H148.205C148.071 14.7597 148.038 14.6938 148.038 14.572V13.995H148.295L148.797 14.8595ZM148.038 13.9052V13.1625C148.327 13.1625 148.618 13.1625 148.618 13.5399C148.618 13.8054 148.484 13.9052 148.239 13.9052H148.038ZM148.261 15.682C149.208 15.682 150 14.9054 150 13.9511C150 12.9968 149.208 12.2202 148.261 12.2202C147.302 12.2202 146.51 12.9968 146.51 13.9511C146.51 14.9054 147.302 15.682 148.261 15.682ZM148.261 15.4924C147.415 15.4924 146.711 14.7936 146.711 13.9491C146.711 13.1066 147.403 12.4059 148.261 12.4059C149.107 12.4059 149.811 13.1046 149.811 13.9491C149.809 14.7936 149.107 15.4924 148.261 15.4924Z" fill="#18181B"/>
<path fill-rule="evenodd" clip-rule="evenodd" d="M55.3364 15.5802V5.80371H53.1884V15.5802H55.3364Z" fill="#18181B"/>
<path fill-rule="evenodd" clip-rule="evenodd" d="M64.9516 15.5802H62.9058V5.80371H65.4631L68.1226 11.6572V5.80371H70.2706V15.5802L67.6272 15.5962L64.9516 10.0022V15.5802Z" fill="#18181B"/>
<path fill-rule="evenodd" clip-rule="evenodd" d="M82.7499 7.73825H79.7835V9.67279H82.7499V11.6073H79.7835V15.5802H77.6355V5.80371H82.7499V7.73825Z" fill="#18181B"/>
<path fill-rule="evenodd" clip-rule="evenodd" d="M92.0582 15.5802V5.80371H89.9102V15.5802H92.0582Z" fill="#18181B"/>
<path fill-rule="evenodd" clip-rule="evenodd" d="M101.571 15.5802H99.5253V5.80371H102.083L104.742 11.6572V5.80371H106.89V15.5802L104.247 15.5962L101.571 10.0022V15.5802Z" fill="#18181B"/>
<path fill-rule="evenodd" clip-rule="evenodd" d="M116.608 15.5802V5.80371H114.46V15.5802H116.608Z" fill="#18181B"/>
<path fill-rule="evenodd" clip-rule="evenodd" d="M128.064 15.5802H125.916V7.73825H123.666V5.80371H130.314V7.73825H128.064V15.5802Z" fill="#18181B"/>
<path fill-rule="evenodd" clip-rule="evenodd" d="M139.725 15.5802V5.80371H137.577V15.5802H139.725Z" fill="#18181B"/>
</g>
<defs>
<clipPath id="clip0_9_618">
<rect width="150" height="20.679" fill="white"/>
</clipPath>
</defs>
</svg>
