<svg width="150" height="21" viewBox="0 0 150 21" fill="none" xmlns="http://www.w3.org/2000/svg">
<g clip-path="url(#clip0_491_13151)">
<path fill-rule="evenodd" clip-rule="evenodd" d="M14.4068 20.6146C12.5956 20.3112 10.8066 19.864 9.23415 19.3289C7.6597 18.7959 6.30186 18.175 5.16866 17.5242C4.03545 16.8733 3.12688 16.1925 2.41086 15.5098C0.302902 13.4794 -0.282754 11.461 0.11838 9.4526C0.405191 8.113 1.17938 6.75343 2.7097 5.39186C3.47988 4.71108 4.44661 4.0323 5.63999 3.39144C6.83336 2.75059 8.25538 2.14767 9.88599 1.63658C11.5186 1.1235 13.3618 0.702253 15.3454 0.41876C17.331 0.133271 19.453 -0.0104722 21.577 -0.000490008C23.701 0.0114886 25.825 0.179189 27.7966 0.482646C29.7682 0.786103 31.5893 1.22332 33.1959 1.74838C34.8024 2.27344 36.1964 2.88635 37.3617 3.53119C38.5269 4.17604 39.4616 4.85682 40.2037 5.5376C42.3839 7.56398 43.0096 9.58437 42.6626 11.5968C42.4079 12.9364 41.6698 14.2899 40.1917 15.6495C39.4475 16.3303 38.5089 17.0111 37.3436 17.6559C36.1803 18.3008 34.7924 18.9097 33.1838 19.4327C31.5753 19.9558 29.7501 20.391 27.9009 20.6785L21.3745 5.80313L14.4068 20.6146ZM34.2047 14.5734C35.1895 14.1203 35.9958 13.6411 36.6516 13.16C38.551 11.7505 39.267 10.339 39.2931 8.95349C39.2891 7.53603 38.6212 6.16848 36.77 4.74702C36.1302 4.26388 35.3399 3.78274 34.3752 3.32556C33.4105 2.86838 32.2753 2.43715 30.9696 2.06781C29.6659 1.69647 28.1937 1.38703 26.6052 1.16942C25.0168 0.951807 23.3119 0.830024 21.6051 0.816049C19.8983 0.804071 18.1895 0.899899 16.5869 1.09555C14.9844 1.2912 13.4902 1.58268 12.1544 1.93804C10.8186 2.29341 9.6433 2.71465 8.64047 3.16585C7.63764 3.61704 6.80729 4.09818 6.13338 4.57932C4.18788 5.9888 3.44177 7.41425 3.39163 8.80177C3.37158 10.2172 4.02141 11.5888 5.8205 13.0042C6.44426 13.4874 7.22046 13.9725 8.16914 14.4337C9.11782 14.8929 10.239 15.3261 11.3862 15.6655L21.4788 4.07422L30.8693 15.7833C32.0567 15.4499 33.2199 15.0266 34.2047 14.5734Z" fill="white"/>
<path fill-rule="evenodd" clip-rule="evenodd" d="M148.797 14.859H149.31V14.7592C149.21 14.7592 149.132 14.7252 149.087 14.6374L148.696 13.9946C148.909 13.9067 149.053 13.7729 149.053 13.5394C149.053 13.1181 148.63 13.0403 148.307 13.0403H147.361V13.1301H147.449C147.593 13.1301 147.615 13.196 147.615 13.3178V14.5715C147.615 14.7492 147.537 14.7592 147.371 14.7592V14.859H148.295V14.7592H148.205C148.071 14.7592 148.038 14.6933 148.038 14.5715V13.9946H148.295L148.797 14.859ZM148.038 13.9047V13.162C148.327 13.162 148.618 13.162 148.618 13.5394C148.618 13.8049 148.484 13.9047 148.239 13.9047H148.038ZM148.261 15.6815C149.208 15.6815 150 14.9049 150 13.9506C150 12.9963 149.208 12.2197 148.261 12.2197C147.302 12.2197 146.51 12.9963 146.51 13.9506C146.51 14.9049 147.302 15.6815 148.261 15.6815ZM148.261 15.4919C147.415 15.4919 146.711 14.7931 146.711 13.9486C146.711 13.1061 147.403 12.4054 148.261 12.4054C149.107 12.4054 149.811 13.1041 149.811 13.9486C149.809 14.7931 149.107 15.4919 148.261 15.4919Z" fill="white"/>
<path fill-rule="evenodd" clip-rule="evenodd" d="M55.3364 15.5792V5.80273H53.1884V15.5792H55.3364Z" fill="white"/>
<path fill-rule="evenodd" clip-rule="evenodd" d="M64.9517 15.5792H62.9059V5.80273H65.4631L68.1226 11.6563V5.80273H70.2707V15.5792L67.6272 15.5952L64.9517 10.0012V15.5792Z" fill="white"/>
<path fill-rule="evenodd" clip-rule="evenodd" d="M82.75 7.73727H79.7836V9.67181H82.75V11.6064H79.7836V15.5792H77.6355V5.80273H82.75V7.73727Z" fill="white"/>
<path fill-rule="evenodd" clip-rule="evenodd" d="M92.0582 15.5792V5.80273H89.9102V15.5792H92.0582Z" fill="white"/>
<path fill-rule="evenodd" clip-rule="evenodd" d="M101.571 15.5792H99.5254V5.80273H102.083L104.742 11.6563V5.80273H106.89V15.5792L104.247 15.5952L101.571 10.0012V15.5792Z" fill="white"/>
<path fill-rule="evenodd" clip-rule="evenodd" d="M116.608 15.5792V5.80273H114.46V15.5792H116.608Z" fill="white"/>
<path fill-rule="evenodd" clip-rule="evenodd" d="M128.064 15.5792H125.916V7.73727H123.666V5.80273H130.314V7.73727H128.064V15.5792Z" fill="white"/>
<path fill-rule="evenodd" clip-rule="evenodd" d="M139.725 15.5792V5.80273H137.577V15.5792H139.725Z" fill="white"/>
</g>
<defs>
<clipPath id="clip0_491_13151">
<rect width="150" height="20.679" fill="white"/>
</clipPath>
</defs>
</svg>
