<svg width="110" height="26" viewBox="0 0 110 26" fill="none" xmlns="http://www.w3.org/2000/svg">
<path d="M26.7826 6.18586V2.07536H38.6389V0H24.1143V14.0481H26.7826V8.26123V6.18586ZM37.8372 8.26123V6.18586H28.8692V8.26123H37.8372ZM42.852 14.0481V0H40.1842V14.0481H42.852ZM64.2586 14.0481V0H61.9315V10.4363L47.8679 0H45.5602V14.0481H47.8878V3.11305L62.9543 14.0481H64.2586ZM69.6352 14.0481V0H66.9668V14.0481H69.6352ZM81.5718 14.0481V2.07591H88.7746V0.000551617H71.5012V2.07591H78.904V14.0487H81.5718V14.0481ZM100.992 14.0481V8.34114L110 0H106.63L99.6485 6.42558L92.6668 0H89.2566L98.3243 8.34114V14.0481H100.992ZM21.5063 14.0481V0H19.2192L10.874 11.474L2.48772 0H0V14.0481H2.46778V4.23064L9.66998 14.0481H11.8569L19.0391 4.21025V14.0481H21.5063Z" fill="white"/>
<path d="M88.8092 21.2648H85.6411V25.6244H88.8407V25.1758H86.1358V23.6499H88.5277V23.2013H86.1358V21.7129H88.8092V21.2648ZM81.9937 22.5852C81.9937 22.7263 81.9654 22.853 81.9089 22.9649C81.8524 23.0768 81.7743 23.1716 81.674 23.2482C81.5737 23.3253 81.4546 23.3843 81.3172 23.4256C81.1798 23.4669 81.0291 23.4879 80.8667 23.4879H79.5204V21.7189H80.8728C81.2274 21.7189 81.5033 21.795 81.6995 21.946C81.8956 22.0981 81.9937 22.3108 81.9937 22.5852ZM82.6514 25.6244L81.305 23.8433C81.4762 23.8141 81.6347 23.7645 81.7809 23.6934C81.9272 23.6229 82.0535 23.5347 82.1599 23.4289C82.2663 23.3231 82.3488 23.1986 82.4076 23.0553C82.4657 22.912 82.4951 22.7489 82.4951 22.5665C82.4951 22.3714 82.4574 22.1939 82.3821 22.0341C82.3067 21.8743 82.2004 21.7371 82.063 21.623C81.925 21.509 81.7593 21.4208 81.5654 21.3585C81.3709 21.2962 81.1532 21.2648 80.9111 21.2648H79.0267V25.6244H79.5215V23.9304H80.7737L82.0447 25.6244H82.6514ZM75.9112 21.2648H72.7426V25.6244H75.9423V25.1758H73.2374V23.6499H75.6292V23.2013H73.2374V21.7129H75.9112V21.2648ZM68.9212 23.6626V25.6244H69.416V21.2648H68.9212V23.2019H66.392V21.2648H65.8972V25.6244H66.392V23.6626H68.9212ZM60.904 21.2648H57.7359V25.6244H60.9356V25.1758H58.2307V23.6499H60.6226V23.2013H58.2307V21.7129H60.9046V21.2648H60.904ZM53.9256 24.7587L51.1642 21.2648H50.701V25.6244H51.1831V22.0496L54.0137 25.6244H54.4082V21.2648H53.9262V24.7587H53.9256ZM46.8354 21.2648V25.6244H47.3301V21.2648H46.8354ZM40.8283 25.6244H43.7897V25.1698H41.3225V21.2648H40.8277V25.6244H40.8283ZM37.6258 25.0326V23.295H35.8162V23.7375H37.1499V24.8215C36.9997 24.9416 36.8141 25.0447 36.5925 25.1295C36.3714 25.215 36.1354 25.2568 35.8849 25.2568C35.6179 25.2568 35.378 25.2111 35.1652 25.1202C34.9519 25.0287 34.7707 24.902 34.62 24.7405C34.4699 24.5785 34.3541 24.3867 34.2726 24.1646C34.1912 23.9425 34.1502 23.7006 34.1502 23.4388C34.1502 23.1942 34.1923 22.9622 34.2754 22.7445C34.3591 22.5268 34.4738 22.3367 34.62 22.1747C34.7663 22.0126 34.9414 21.8842 35.1464 21.7884C35.3508 21.693 35.5741 21.6451 35.8162 21.6451C35.9708 21.6451 36.1116 21.6577 36.239 21.6825C36.3664 21.7073 36.4833 21.7415 36.5892 21.785C36.6961 21.8286 36.7947 21.8804 36.8867 21.941C36.9787 22.0011 37.0662 22.0689 37.1499 22.1432L37.4696 21.7696C37.361 21.6781 37.2496 21.5966 37.1343 21.5238C37.0197 21.4511 36.8961 21.3899 36.7648 21.3403C36.6329 21.2907 36.4911 21.2533 36.3387 21.2279C36.1864 21.2031 36.0185 21.1904 35.8345 21.1904C35.5049 21.1904 35.2051 21.2516 34.9358 21.3745C34.6666 21.4968 34.4361 21.6616 34.2438 21.8694C34.0516 22.0771 33.9025 22.3179 33.7961 22.5918C33.6892 22.8657 33.6366 23.1523 33.6366 23.451C33.6366 23.7623 33.6881 24.0549 33.7901 24.3294C33.8926 24.6033 34.0405 24.8419 34.2344 25.0458C34.4289 25.2491 34.6621 25.4089 34.9358 25.5252C35.209 25.6415 35.5193 25.6999 35.8656 25.6999C36.2373 25.6999 36.5725 25.6343 36.8706 25.5037C37.1698 25.372 37.4213 25.2155 37.6258 25.0326ZM29.8967 24.0301H27.8993L28.901 21.8065L29.8967 24.0301ZM29.1387 21.234H28.675L26.6776 25.625H27.1846L27.7043 24.4727H30.09L30.6037 25.625H31.1361L29.1387 21.234ZM23.1316 21.7195H24.6032V21.2648H21.1592V21.7195H22.6308V25.6244H23.1316V21.7195Z" fill="white"/>
</svg>
