<svg width="110" height="26" viewBox="0 0 110 26" fill="none" xmlns="http://www.w3.org/2000/svg">
<path d="M26.7826 6.18586V2.07536H38.6389V0H24.1143V14.0481H26.7826V8.26123V6.18586ZM37.8372 8.26123V6.18586H28.8692V8.26123H37.8372ZM42.852 14.0481V0H40.1842V14.0481H42.852ZM64.2586 14.0481V0H61.9315V10.4363L47.8679 0H45.5602V14.0481H47.8878V3.11305L62.9543 14.0481H64.2586ZM69.6352 14.0481V0H66.9668V14.0481H69.6352ZM81.5718 14.0481V2.07591H88.7746V0.000551617H71.5012V2.07591H78.904V14.0487H81.5718V14.0481ZM100.992 14.0481V8.34114L110 0H106.63L99.6485 6.42558L92.6668 0H89.2566L98.3243 8.34114V14.0481H100.992ZM21.5063 14.0481V0H19.2192L10.874 11.474L2.48772 0H0V14.0481H2.46778V4.23064L9.66998 14.0481H11.8569L19.0391 4.21025V14.0481H21.5063Z" fill="#18181B"/>
<path d="M88.8092 21.2646H85.6411V25.6242H88.8407V25.1756H86.1358V23.6497H88.5277V23.2011H86.1358V21.7126H88.8092V21.2646ZM81.9937 22.585C81.9937 22.726 81.9654 22.8528 81.9089 22.9647C81.8524 23.0765 81.7743 23.1713 81.674 23.2479C81.5737 23.3251 81.4546 23.384 81.3172 23.4254C81.1798 23.4667 81.0291 23.4876 80.8667 23.4876H79.5204V21.7187H80.8728C81.2274 21.7187 81.5033 21.7947 81.6995 21.9457C81.8956 22.0978 81.9937 22.3105 81.9937 22.585ZM82.6514 25.6242L81.305 23.8431C81.4762 23.8139 81.6347 23.7643 81.7809 23.6932C81.9272 23.6227 82.0535 23.5345 82.1599 23.4287C82.2663 23.3229 82.3488 23.1983 82.4076 23.055C82.4657 22.9118 82.4951 22.7486 82.4951 22.5662C82.4951 22.3712 82.4574 22.1937 82.3821 22.0339C82.3067 21.8741 82.2004 21.7369 82.063 21.6228C81.925 21.5087 81.7593 21.4205 81.5654 21.3583C81.3709 21.296 81.1532 21.2646 80.9111 21.2646H79.0267V25.6242H79.5215V23.9302H80.7737L82.0447 25.6242H82.6514ZM75.9112 21.2646H72.7426V25.6242H75.9423V25.1756H73.2374V23.6497H75.6292V23.2011H73.2374V21.7126H75.9112V21.2646ZM68.9212 23.6623V25.6242H69.416V21.2646H68.9212V23.2016H66.392V21.2646H65.8972V25.6242H66.392V23.6623H68.9212ZM60.904 21.2646H57.7359V25.6242H60.9356V25.1756H58.2307V23.6497H60.6226V23.2011H58.2307V21.7126H60.9046V21.2646H60.904ZM53.9256 24.7584L51.1642 21.2646H50.701V25.6242H51.1831V22.0493L54.0137 25.6242H54.4082V21.2646H53.9262V24.7584H53.9256ZM46.8354 21.2646V25.6242H47.3301V21.2646H46.8354ZM40.8283 25.6242H43.7897V25.1695H41.3225V21.2646H40.8277V25.6242H40.8283ZM37.6258 25.0323V23.2948H35.8162V23.7373H37.1499V24.8212C36.9997 24.9414 36.8141 25.0444 36.5925 25.1293C36.3714 25.2147 36.1354 25.2566 35.8849 25.2566C35.6179 25.2566 35.378 25.2109 35.1652 25.1199C34.9519 25.0285 34.7707 24.9017 34.62 24.7402C34.4699 24.5782 34.3541 24.3865 34.2726 24.1644C34.1912 23.9423 34.1502 23.7004 34.1502 23.4386C34.1502 23.1939 34.1923 22.9619 34.2754 22.7442C34.3591 22.5266 34.4738 22.3364 34.62 22.1744C34.7663 22.0124 34.9414 21.884 35.1464 21.7881C35.3508 21.6928 35.5741 21.6448 35.8162 21.6448C35.9708 21.6448 36.1116 21.6575 36.239 21.6823C36.3664 21.7071 36.4833 21.7413 36.5892 21.7848C36.6961 21.8283 36.7947 21.8801 36.8867 21.9408C36.9787 22.0008 37.0662 22.0686 37.1499 22.143L37.4696 21.7694C37.361 21.6779 37.2496 21.5963 37.1343 21.5236C37.0197 21.4508 36.8961 21.3897 36.7648 21.3401C36.6329 21.2905 36.4911 21.253 36.3387 21.2277C36.1864 21.2029 36.0185 21.1902 35.8345 21.1902C35.5049 21.1902 35.2051 21.2514 34.9358 21.3743C34.6666 21.4966 34.4361 21.6614 34.2438 21.8691C34.0516 22.0769 33.9025 22.3177 33.7961 22.5916C33.6892 22.8655 33.6366 23.152 33.6366 23.4507C33.6366 23.7621 33.6881 24.0547 33.7901 24.3291C33.8926 24.603 34.0405 24.8416 34.2344 25.0455C34.4289 25.2489 34.6621 25.4087 34.9358 25.525C35.209 25.6413 35.5193 25.6997 35.8656 25.6997C36.2373 25.6997 36.5725 25.6341 36.8706 25.5035C37.1698 25.3718 37.4213 25.2153 37.6258 25.0323ZM29.8967 24.0299H27.8993L28.901 21.8063L29.8967 24.0299ZM29.1387 21.2337H28.675L26.6776 25.6247H27.1846L27.7043 24.4724H30.09L30.6037 25.6247H31.1361L29.1387 21.2337ZM23.1316 21.7192H24.6032V21.2646H21.1592V21.7192H22.6308V25.6242H23.1316V21.7192Z" fill="#18181B"/>
</svg>
