<svg width="27" height="40" viewBox="0 0 27 40" fill="none" xmlns="http://www.w3.org/2000/svg">
<g id="Vector">
<path d="M19.4055 0H7.59449C3.40961 0 0 3.36719 0 7.5V32.5C0 36.6328 3.40961 40 7.59449 40H19.4055C23.5904 40 27 36.6328 27 32.5V7.5C27 3.36719 23.5983 0 19.4055 0ZM18.2347 1.66406L17.6888 3.28906C17.3408 4.3125 16.3756 5 15.2918 5H11.7161C10.6244 5 9.65924 4.3125 9.31116 3.28906L8.76531 1.66406H18.2347ZM25.315 32.5C25.315 35.7188 22.6648 38.3359 19.4055 38.3359H7.59449C4.33519 38.3359 1.68503 35.7188 1.68503 32.5V7.5C1.68503 4.48438 4.02666 2.02344 7.00117 1.72656L7.70525 3.82031C8.28274 5.52344 9.88866 6.67188 11.7082 6.67188H15.2839C17.1034 6.67188 18.7093 5.52344 19.2868 3.82031L19.9909 1.72656C22.9733 2.02344 25.315 4.48438 25.315 7.5V32.5Z" fill="#18181B"/>
<path d="M16.0355 33.3359H10.9725C10.5057 33.3359 10.126 33.7109 10.126 34.1719C10.126 34.6328 10.5057 35.0078 10.9725 35.0078H16.0355C16.5022 35.0078 16.8819 34.6328 16.8819 34.1719C16.8819 33.7109 16.5022 33.3359 16.0355 33.3359Z" fill="#18181B"/>
</g>
</svg>
