<svg width="40" height="34" viewBox="0 0 40 34" fill="none" xmlns="http://www.w3.org/2000/svg">
<path id="Vector" d="M35.8359 6.79681H7.5C5.59375 6.79681 3.79688 5.83267 2.71094 4.24701C3.76563 2.70916 5.51563 1.69721 7.5 1.69721H39.1641C39.625 1.69721 40 1.31474 40 0.844621C40 0.374502 39.625 0 39.1641 0H7.5C3.35938 0 0 3.42629 0 7.6494V26.3506C0 30.5737 3.35938 34 7.5 34H35.8359C38.1406 34 40 32.0956 40 29.753V11.0518C40 8.70119 38.1328 6.79681 35.8359 6.79681ZM38.3359 29.745C38.3359 31.1474 37.2109 32.2948 35.8359 32.2948H7.5C4.28125 32.2948 1.66406 29.6255 1.66406 26.3426V7.6494C1.66406 7.05976 1.75 6.48606 1.90625 5.94422C3.3125 7.54582 5.34375 8.49402 7.5 8.49402H35.8359C37.2109 8.49402 38.3359 9.64143 38.3359 11.0438V29.745ZM35 20.3984C35 21.3386 34.25 22.0956 33.3359 22.0956C32.4219 22.0956 31.6719 21.3307 31.6719 20.3984C31.6719 19.4661 32.4219 18.7012 33.3359 18.7012C34.25 18.7012 35 19.4582 35 20.3984Z" fill="white"/>
</svg>
