<svg width="40" height="40" viewBox="0 0 40 40" fill="none" xmlns="http://www.w3.org/2000/svg">
<path id="Vector" d="M20 0C17.25 0 15 2.25 15 5V35C15 37.75 17.25 40 20 40C22.75 40 25 37.75 25 35V5C25 2.25 22.75 0 20 0ZM23.3359 35C23.3359 36.8359 21.8359 38.3359 20 38.3359C18.1641 38.3359 16.6641 36.8359 16.6641 35V5C16.6641 3.16406 18.1641 1.66406 20 1.66406C21.8359 1.66406 23.3359 3.16406 23.3359 5V35ZM35 10C32.25 10 30 12.25 30 15V35C30 37.75 32.25 40 35 40C37.75 40 40 37.75 40 35V15C40 12.25 37.75 10 35 10ZM38.3359 35C38.3359 36.8359 36.8359 38.3359 35 38.3359C33.1641 38.3359 31.6641 36.8359 31.6641 35V15C31.6641 13.1641 33.1641 11.6641 35 11.6641C36.8359 11.6641 38.3359 13.1641 38.3359 15V35ZM5 20C2.25 20 0 22.25 0 25V35C0 37.75 2.25 40 5 40C7.75 40 10 37.75 10 35V25C10 22.25 7.75 20 5 20ZM8.33594 35C8.33594 36.8359 6.83594 38.3359 5 38.3359C3.16406 38.3359 1.66406 36.8359 1.66406 35V25C1.66406 23.1641 3.16406 21.6641 5 21.6641C6.83594 21.6641 8.33594 23.1641 8.33594 25V35Z" fill="white"/>
</svg>
