<svg width="40" height="40" viewBox="0 0 40 40" fill="none" xmlns="http://www.w3.org/2000/svg">
<path d="M16.5 19.8333L12.1667 24.1667C11.5 24.6667 10.6667 25 9.83333 25C9 25 8.33333 24.6667 7.66667 24.1667L5.16667 21.8333C4.83333 21.5 4.83333 21 5.16667 20.6667C5.5 20.3333 6 20.3333 6.33333 20.6667L8.83333 23C9.5 23.5 10.3333 23.5 10.8333 23L15.1667 18.6667C15.5 18.3333 16 18.3333 16.3333 18.6667C16.6667 19 16.6667 19.5 16.5 19.8333ZM17.5 38.3333H7.5C4.33333 38.3333 1.66667 35.6667 1.66667 32.5V10.8333C1.66667 7.66667 4.33333 5 7.5 5H9.16667C9.66667 5 10 4.66667 10 4.16667C10 2.83333 11.1667 1.66667 12.5 1.66667H17.5C18.8333 1.66667 20 2.83333 20 4.16667C20 4.66667 20.3333 5 20.8333 5H22.5C25.6667 5 28.3333 7.66667 28.3333 10.8333V17.5C28.3333 18 28.6667 18.3333 29.1667 18.3333C29.6667 18.3333 30 18 30 17.5V10.8333C30 6.66667 26.6667 3.33333 22.5 3.33333H21.5C21.1667 1.5 19.5 0 17.5 0H12.5C10.5 0 8.83333 1.5 8.5 3.33333H7.5C3.33333 3.33333 0 6.66667 0 10.8333V32.5C0 36.6667 3.33333 40 7.5 40H17.5C18 40 18.3333 39.6667 18.3333 39.1667C18.3333 38.6667 18 38.3333 17.5 38.3333ZM15.1667 26.8333L10.8333 31.1667C10.3333 31.6667 9.33333 31.8333 8.83333 31.1667L6.33333 28.8333C6 28.5 5.5 28.5 5.16667 28.8333C4.83333 29.1667 4.83333 29.6667 5.16667 30L7.66667 32.3333C8.33333 33 9.16667 33.3333 9.83333 33.3333C10.6667 33.3333 11.5 33 12 32.3333L16.3333 28C16.6667 27.6667 16.6667 27.1667 16.3333 26.8333C16 26.5 15.5 26.6667 15.1667 26.8333ZM32.5 26.6667H27.5C27 26.6667 26.6667 27 26.6667 27.5C26.6667 28 27 28.3333 27.5 28.3333H32.5C33 28.3333 33.3333 28 33.3333 27.5C33.3333 27 33 26.6667 32.5 26.6667ZM40 27.5V34.1667C40 37.3333 37.3333 40 34.1667 40H25.8333C22.6667 40 20 37.3333 20 34.1667V27.5C20 24.3333 22.6667 21.6667 25.8333 21.6667H34.1667C37.3333 21.6667 40 24.3333 40 27.5ZM38.3333 27.5C38.3333 25.1667 36.5 23.3333 34.1667 23.3333H25.8333C23.5 23.3333 21.6667 25.1667 21.6667 27.5V34.1667C21.6667 36.5 23.5 38.3333 25.8333 38.3333H34.1667C36.5 38.3333 38.3333 36.5 38.3333 34.1667V27.5ZM25 14.1667C25 13.6667 24.6667 13.3333 24.1667 13.3333H19.1667C18.6667 13.3333 18.3333 13.6667 18.3333 14.1667C18.3333 14.6667 18.6667 15 19.1667 15H24.1667C24.6667 15 25 14.6667 25 14.1667ZM16.5 10.1667C16.1667 10 15.5 10 15.1667 10.1667L11 14.5C10.5 15 9.5 15.1667 9 14.5L6.33333 12.3333C6 12 5.5 12 5.16667 12.3333C4.83333 12.6667 5 13.1667 5.33333 13.5L7.83333 15.8333C8.33333 16.3333 9.16667 16.6667 9.83333 16.6667C10.6667 16.6667 11.5 16.3333 12 15.6667L16.3333 11.3333C16.6667 11.1667 16.6667 10.5 16.5 10.1667Z" fill="white"/>
</svg>
