<svg width="40" height="40" viewBox="0 0 40 40" fill="none" xmlns="http://www.w3.org/2000/svg">
<path d="M39.8759 38.7266L31.5478 25.3125C32.954 24.5234 34.2978 23.5859 35.5478 22.4844C35.8915 22.1797 35.9306 21.6562 35.6259 21.3047C35.3212 20.9609 34.7978 20.9219 34.4462 21.2266C33.2665 22.2656 31.9931 23.1484 30.665 23.8906L24.8681 14.5547L24.8525 14.5391C25.9697 13.3438 26.6572 11.75 26.6572 9.99219C26.6572 6.60156 24.1103 3.79688 20.8212 3.38281V0.835938C20.8369 0.375 20.4619 0 20.0009 0C19.54 0 19.165 0.375 19.165 0.835938V3.39062C15.8837 3.80469 13.329 6.60938 13.329 10C13.329 11.7578 14.0165 13.3516 15.1337 14.5469L15.1181 14.5625L9.32123 23.8984C7.9931 23.1562 6.71966 22.2734 5.53998 21.2344C5.19623 20.9297 4.66498 20.9609 4.36029 21.3125C4.0556 21.6562 4.09466 22.1875 4.43841 22.4922C5.68841 23.5938 7.03216 24.5312 8.43841 25.3203L0.125914 38.7266C-0.116273 39.1172 0.000914149 39.6328 0.391539 39.875C0.524352 39.9609 0.680602 40 0.829039 40C1.11029 40 1.37591 39.8594 1.53998 39.6094L9.93841 26.0859C13.1181 27.5781 16.5556 28.3281 20.0009 28.3281C23.4462 28.3281 26.8837 27.5781 30.0634 26.0859L38.4618 39.6094C38.6181 39.8594 38.8915 40 39.1728 40C39.3212 40 39.4775 39.9609 39.6103 39.875C40.0009 39.6328 40.1181 39.1172 39.8759 38.7266ZM20.0009 5C22.7587 5 25.0009 7.24219 25.0009 10C25.0009 12.7578 22.7587 15 20.0009 15C17.2431 15 15.0009 12.7578 15.0009 10C15.0009 7.24219 17.2431 5 20.0009 5ZM10.8212 24.6484L16.4228 15.6172C17.454 16.2734 18.6806 16.6641 19.9931 16.6641C21.3056 16.6641 22.5322 16.2812 23.5634 15.6172L29.165 24.6484C23.3759 27.3203 16.6259 27.3203 10.8212 24.6484Z" fill="#18181B"/>
</svg>
