<svg width="40" height="40" viewBox="0 0 40 40" fill="none" xmlns="http://www.w3.org/2000/svg">
<path d="M26.6641 30.8359V32.5C26.6641 36.6328 23.2969 40 19.1641 40H7.5C3.36719 40 0 36.6328 0 32.5V20.8359C0 16.7031 3.36719 13.3359 7.5 13.3359H9.16406C9.625 13.3359 10 13.7109 10 14.1719C10 14.6328 9.625 15.0078 9.16406 15.0078H7.5C4.28125 15.0078 1.66406 17.625 1.66406 20.8437V32.5C1.66406 35.7188 4.28125 38.3359 7.5 38.3359H19.1641C22.3828 38.3359 25 35.7188 25 32.5V30.8359C25 30.375 25.375 30 25.8359 30C26.2969 30 26.6641 30.375 26.6641 30.8359ZM40 7.5V19.1641C40 23.2969 36.6328 26.6641 32.5 26.6641H20.8359C16.7031 26.6641 13.3359 23.2969 13.3359 19.1641V7.5C13.3359 3.36719 16.7031 0 20.8359 0H32.5C36.6328 0 40 3.36719 40 7.5ZM38.3359 7.5C38.3359 4.28125 35.7188 1.66406 32.5 1.66406H20.8359C17.6172 1.66406 15 4.28125 15 7.5V19.1641C15 22.3828 17.6172 25 20.8359 25H32.5C35.7188 25 38.3359 22.3828 38.3359 19.1641V7.5Z" fill="white"/>
</svg>
