<svg width="37" height="40" viewBox="0 0 37 40" fill="none" xmlns="http://www.w3.org/2000/svg">
<path id="Vector" d="M6.43183 25C6.43183 23.1641 7.87202 21.6641 9.65152 21.6641H20.1098C20.5547 21.6641 20.9166 22.0391 20.9166 22.5C20.9166 22.9609 20.5547 23.3359 20.1098 23.3359H9.65152C8.76177 23.3359 8.04544 24.0859 8.04544 25V28.3359C8.04544 29.2578 8.76931 30 9.65152 30H21.7159C22.1608 30 22.5227 30.375 22.5227 30.8359C22.5227 31.2969 22.1608 31.6719 21.7159 31.6719H9.65152C7.87956 31.6719 6.43183 30.1797 6.43183 28.3359V25ZM7.23864 16.6641H13.6705C14.1153 16.6641 14.4773 16.2891 14.4773 15.8281C14.4773 15.3672 14.1153 14.9922 13.6705 14.9922H7.23864C6.79376 14.9922 6.43183 15.3672 6.43183 15.8281C6.43183 16.2891 6.79376 16.6641 7.23864 16.6641ZM7.23864 10H13.6705C14.1153 10 14.4773 9.625 14.4773 9.16406C14.4773 8.70313 14.1153 8.32812 13.6705 8.32812H7.23864C6.79376 8.32812 6.43183 8.70313 6.43183 9.16406C6.43183 9.625 6.79376 10 7.23864 10ZM25.7349 39.1641C25.7349 39.625 25.3729 40 24.9281 40H7.23864C3.24985 40 0 36.6328 0 32.5V7.5C0 3.36719 3.24985 0 7.23864 0H16.1135C18.9034 0 21.5349 1.125 23.5105 3.17187L29.1054 8.98438C30.4324 10.3594 31.375 12.0781 31.8425 13.9609C31.9028 14.2109 31.85 14.4766 31.6992 14.6797C31.5484 14.8828 31.3147 15 31.0658 15H21.7159C19.4991 15 17.697 13.1328 17.697 10.8359V1.8125C17.1767 1.71875 16.6489 1.66406 16.1135 1.66406H7.23864C4.13206 1.66406 1.60607 4.28125 1.60607 7.5V32.5C1.60607 35.7188 4.13206 38.3359 7.23864 38.3359H24.9356C25.3805 38.3359 25.7349 38.7031 25.7349 39.1641ZM19.303 10.8359C19.303 12.2109 20.3888 13.3359 21.7159 13.3359H29.9649C29.5201 12.1484 28.8414 11.0703 27.9668 10.1641L22.3644 4.35937C21.4822 3.42969 20.4416 2.73438 19.303 2.28125V10.8359ZM33.441 27.9688L27.9366 27.0547C26.6623 26.8437 25.7349 25.7188 25.7349 24.3828C25.7349 22.8906 26.9111 21.6719 28.3513 21.6719H32.8529C33.8557 21.6719 34.7907 22.2266 35.2959 23.1328C35.5221 23.5313 36.0122 23.6641 36.3968 23.4375C36.7813 23.2109 36.9095 22.6953 36.6908 22.2969C35.8991 20.8828 34.4363 20.0078 32.8604 20.0078H31.3674V17.5078C31.3674 17.0469 31.0055 16.6719 30.5606 16.6719C30.1158 16.6719 29.7538 17.0469 29.7538 17.5078V20.0078H28.3513C26.0214 20.0078 24.1288 21.9688 24.1288 24.3828C24.1288 26.5391 25.6218 28.3594 27.6803 28.7031L33.1846 29.6172C34.4589 29.8281 35.3864 30.9531 35.3864 32.2891C35.3864 33.7812 34.2101 35 32.7699 35H28.2684C27.2655 35 26.3305 34.4453 25.8254 33.5391C25.5991 33.1406 25.1015 33.0078 24.7245 33.2344C24.3399 33.4609 24.2117 33.9766 24.4304 34.375C25.2221 35.7891 26.6849 36.6641 28.2608 36.6641H29.7538V39.1641C29.7538 39.625 30.1158 40 30.5606 40C31.0055 40 31.3674 39.625 31.3674 39.1641V36.6641H32.7699C35.0999 36.6641 36.9925 34.7031 36.9925 32.2891C37 30.1328 35.4995 28.3125 33.441 27.9688Z" fill="white"/>
</svg>
