<svg width="40" height="40" viewBox="0 0 40 40" fill="none" xmlns="http://www.w3.org/2000/svg">
<path id="Vector" d="M39.5312 15.6484C39.8516 17.0625 40 18.5312 40 20C40 31.0312 31.0312 40 20 40C8.96875 40 0 31.0312 0 20C0 8.96875 8.96875 0 20 0C21.4688 0 22.9297 0.164062 24.3516 0.46875C24.8047 0.570312 25.0859 1.01562 24.9844 1.46875C24.8828 1.92188 24.4375 2.20312 23.9844 2.10156C22.6875 1.82031 21.3359 1.67188 20 1.67188C9.88281 1.66406 1.66406 9.88281 1.66406 20C1.66406 30.1172 9.88281 38.3359 20 38.3359C30.1172 38.3359 38.3359 30.1172 38.3359 20C38.3359 18.6484 38.1875 17.3203 37.9062 16.0156C37.8047 15.5625 38.0859 15.1172 38.5391 15.0156C38.9844 14.9141 39.4297 15.2031 39.5312 15.6484ZM22.3359 8.57031C22.7891 8.65625 23.2188 8.36719 23.3203 7.92188C23.4062 7.46875 23.1172 7.03906 22.6719 6.9375C21.8047 6.75781 20.9062 6.67188 20.0078 6.67188C12.6563 6.67188 6.67188 12.6563 6.67188 20.0078C6.67188 27.3594 12.6484 33.3359 20 33.3359C27.3516 33.3359 33.3359 27.3516 33.3359 20C33.3359 19.1016 33.25 18.2031 33.0703 17.3359C32.9844 16.8828 32.5391 16.6016 32.0859 16.6875C31.6328 16.7891 31.3359 17.2188 31.4375 17.6719C31.5859 18.4375 31.6719 19.2188 31.6719 20.0078C31.6719 26.4375 26.4375 31.6719 20.0078 31.6719C13.5781 31.6719 8.34375 26.4375 8.34375 20.0078C8.34375 13.5781 13.5781 8.34375 20.0078 8.34375C20.7812 8.33594 21.5703 8.41406 22.3359 8.57031ZM19.2812 15.0469C19.7344 14.9766 20.0469 14.5625 19.9844 14.0938C19.9141 13.625 19.5 13.3125 19.0312 13.3906C15.7656 13.8594 13.3125 16.6875 13.3125 19.9922C13.3125 23.6719 16.2969 26.6562 19.9766 26.6562C23.2734 26.6562 26.1094 24.2031 26.5781 20.9375C26.6484 20.4844 26.3281 20.0547 25.875 19.9844C25.4219 19.9141 24.9922 20.2344 24.9219 20.6875C24.5703 23.1406 22.4375 24.9688 19.9688 24.9688C17.2188 24.9688 14.9688 22.7188 14.9688 19.9688C14.9688 17.5 16.8047 15.3672 19.25 15.0156L19.2812 15.0469ZM26.6641 12.1484V7.21875C26.6641 6.10156 27.0938 5.05469 27.8828 4.26562L31.9141 0.25C32.1484 0.015625 32.5156 -0.0703125 32.8125 0.0703125C33.1328 0.203125 33.3281 0.5 33.3281 0.835938V6.67188H39.1641C39.5 6.67188 39.7969 6.875 39.9297 7.1875C40.0625 7.50781 39.9766 7.85156 39.75 8.08594L35.7344 12.1016C34.9531 12.8828 33.8984 13.3203 32.7812 13.3203H27.8516L20.6016 20.5703C20.4375 20.7344 20.2188 20.8203 20.0156 20.8203C19.8125 20.8203 19.5859 20.7344 19.4297 20.5703C19.0938 20.2344 19.0938 19.7188 19.4297 19.3906L26.6797 12.1406L26.6641 12.1484ZM28.3359 11.6641H32.7891C33.4531 11.6641 34.0859 11.3984 34.5547 10.9297L37.1562 8.32812H32.5C32.0312 8.32812 31.6641 7.96094 31.6641 7.49219V2.85156L29.0625 5.45312C28.5938 5.92188 28.3281 6.55469 28.3281 7.21875V11.6641H28.3359Z" fill="white"/>
</svg>
