<svg width="38" height="40" viewBox="0 0 38 40" fill="none" xmlns="http://www.w3.org/2000/svg">
<path id="Vector" d="M37 20.0003C37 18.792 36.3745 17.7087 35.3215 17.1045L33.4345 16.0212L35.3215 14.9378C36.3745 14.3337 37 13.2503 37 12.042C37 10.8337 36.3745 9.75033 35.3215 9.14616L20.1733 0.448242C19.1412 -0.145508 17.8588 -0.145508 16.8267 0.448242L1.6785 9.15658C0.625528 9.76074 0 10.8441 0 12.0524C0 13.2607 0.625528 14.3441 1.6785 14.9482L3.55509 16.0316L1.6785 17.1149C0.625528 17.7087 0 18.792 0 20.0003C0 21.2087 0.625528 22.292 1.6785 22.8962L3.55509 23.9795L1.6785 25.0628C0.625528 25.6566 0 26.7399 0 27.9482C0 29.1566 0.625528 30.2399 1.6785 30.8441L16.8267 39.5524C17.348 39.8545 17.9214 40.0003 18.5052 40.0003C19.089 40.0003 19.6624 39.8545 20.1837 39.5524L35.3319 30.8441C36.3849 30.2399 37.0104 29.1566 37.0104 27.9482C37.0104 26.7399 36.3849 25.6566 35.3319 25.0524L33.4553 23.9691L35.3319 22.8857C36.3745 22.292 37 21.2087 37 20.0003ZM1.56382 12.0524C1.56382 11.4066 1.89744 10.8337 2.46041 10.5107L17.6086 1.80241C18.1612 1.47949 18.8493 1.47949 19.4018 1.80241L34.55 10.5107C35.113 10.8337 35.4466 11.4066 35.4466 12.0524C35.4466 12.6982 35.113 13.2712 34.55 13.5941L19.4018 22.3024C18.8493 22.6149 18.1612 22.6149 17.6086 22.3024L2.46041 13.5837C1.89744 13.2712 1.56382 12.6878 1.56382 12.0524ZM34.55 26.417C35.113 26.7399 35.4466 27.3128 35.4466 27.9587C35.4466 28.6045 35.113 29.1774 34.55 29.5003L19.4018 38.2087C18.8493 38.5316 18.1612 38.5316 17.6086 38.2087L2.46041 29.4899C1.89744 29.167 1.56382 28.5941 1.56382 27.9482C1.56382 27.3024 1.89744 26.7295 2.46041 26.4066L5.12933 24.8753L16.8267 31.6045C17.348 31.9066 17.9214 32.0524 18.5052 32.0524C19.089 32.0524 19.6624 31.9066 20.1837 31.6045L31.8811 24.8753L34.55 26.417ZM34.55 21.542L19.4018 30.2503C18.8493 30.5628 18.1612 30.5628 17.6086 30.2503L2.46041 21.542C1.89744 21.2191 1.56382 20.6462 1.56382 20.0003C1.56382 19.3545 1.89744 18.7816 2.46041 18.4587L5.12933 16.9274L16.8267 23.6566C17.348 23.9587 17.9214 24.1045 18.5052 24.1045C19.089 24.1045 19.6624 23.9587 20.1837 23.6566L31.8811 16.9378L34.5604 18.4691C35.1234 18.792 35.457 19.3649 35.457 20.0107C35.4362 20.6462 35.1026 21.2191 34.55 21.542Z" fill="white"/>
</svg>
