<svg width="38" height="40" viewBox="0 0 38 40" fill="none" xmlns="http://www.w3.org/2000/svg">
<path id="Vector" d="M37 20.0001C37 18.7918 36.3745 17.7085 35.3215 17.1043L33.4345 16.021L35.3215 14.9376C36.3745 14.3335 37 13.2501 37 12.0418C37 10.8335 36.3745 9.75014 35.3215 9.14598L20.1733 0.448059C19.1412 -0.145691 17.8588 -0.145691 16.8267 0.448059L1.6785 9.15639C0.625528 9.76056 0 10.8439 0 12.0522C0 13.2606 0.625528 14.3439 1.6785 14.9481L3.55509 16.0314L1.6785 17.1147C0.625528 17.7085 0 18.7918 0 20.0001C0 21.2085 0.625528 22.2918 1.6785 22.896L3.55509 23.9793L1.6785 25.0626C0.625528 25.6564 0 26.7397 0 27.9481C0 29.1564 0.625528 30.2397 1.6785 30.8439L16.8267 39.5522C17.348 39.8543 17.9214 40.0001 18.5052 40.0001C19.089 40.0001 19.6624 39.8543 20.1837 39.5522L35.3319 30.8439C36.3849 30.2397 37.0104 29.1564 37.0104 27.9481C37.0104 26.7397 36.3849 25.6564 35.3319 25.0522L33.4553 23.9689L35.3319 22.8856C36.3745 22.2918 37 21.2085 37 20.0001ZM1.56382 12.0522C1.56382 11.4064 1.89744 10.8335 2.46041 10.5106L17.6086 1.80223C18.1612 1.47931 18.8493 1.47931 19.4018 1.80223L34.55 10.5106C35.113 10.8335 35.4466 11.4064 35.4466 12.0522C35.4466 12.6981 35.113 13.271 34.55 13.5939L19.4018 22.3022C18.8493 22.6147 18.1612 22.6147 17.6086 22.3022L2.46041 13.5835C1.89744 13.271 1.56382 12.6876 1.56382 12.0522ZM34.55 26.4168C35.113 26.7397 35.4466 27.3126 35.4466 27.9585C35.4466 28.6043 35.113 29.1772 34.55 29.5001L19.4018 38.2085C18.8493 38.5314 18.1612 38.5314 17.6086 38.2085L2.46041 29.4897C1.89744 29.1668 1.56382 28.5939 1.56382 27.9481C1.56382 27.3022 1.89744 26.7293 2.46041 26.4064L5.12933 24.8751L16.8267 31.6043C17.348 31.9064 17.9214 32.0522 18.5052 32.0522C19.089 32.0522 19.6624 31.9064 20.1837 31.6043L31.8811 24.8751L34.55 26.4168ZM34.55 21.5418L19.4018 30.2501C18.8493 30.5626 18.1612 30.5626 17.6086 30.2501L2.46041 21.5418C1.89744 21.2189 1.56382 20.646 1.56382 20.0001C1.56382 19.3543 1.89744 18.7814 2.46041 18.4585L5.12933 16.9272L16.8267 23.6564C17.348 23.9585 17.9214 24.1043 18.5052 24.1043C19.089 24.1043 19.6624 23.9585 20.1837 23.6564L31.8811 16.9376L34.5604 18.4689C35.1234 18.7918 35.457 19.3647 35.457 20.0106C35.4362 20.646 35.1026 21.2189 34.55 21.5418Z" fill="#18181B"/>
</svg>
