<svg width="41" height="40" viewBox="0 0 41 40" fill="none" xmlns="http://www.w3.org/2000/svg">
<path id="Vector" d="M14.5233 33.3464L9.67956 23.8748L0 19.1468L9.67956 14.411L14.5233 4.94716L19.3671 14.411L29.0467 19.1468L19.3671 23.8748L14.5233 33.3464ZM3.81898 19.1468L10.9525 22.638L14.5233 29.6125L18.0941 22.638L25.2277 19.1468L18.0941 15.6556L14.5233 8.68102L10.9525 15.6556L3.81898 19.1468ZM31.6007 40L28.4782 33.9022L22.2414 30.8493L28.4782 27.8043L31.6007 21.7065L34.7231 27.8043L40.96 30.8493L34.7231 33.9022L31.6007 40ZM26.0683 30.8571L29.7592 32.6654L31.6007 36.274L33.4421 32.6654L37.133 30.8571L33.4421 29.0568L31.6007 25.4481L29.7592 29.0568L26.0683 30.8571ZM33.33 14.998L30.776 9.99609L25.66 7.49902L30.776 5.00196L33.33 0L35.884 5.00196L41 7.49902L35.884 9.99609L33.33 14.998ZM29.487 7.49902L32.057 8.75147L33.338 11.2564L34.619 8.75147L37.189 7.49902L34.619 6.24658L33.338 3.74168L32.057 6.24658L29.487 7.49902Z" fill="#18181B"/>
</svg>
