<svg width="37" height="40" viewBox="0 0 37 40" fill="none" xmlns="http://www.w3.org/2000/svg">
<path id="Vector" d="M21.5787 8.78125C23.4473 7.79688 25.7179 6.14844 26.727 3.63281C27.0503 2.82031 26.9478 1.9375 26.4511 1.20312C25.9307 0.453125 25.0793 0 24.1568 0H12.8432C11.9286 0 11.0693 0.453125 10.5568 1.20312C10.0522 1.9375 9.94971 2.82031 10.273 3.63281C11.2821 6.14062 13.5527 7.78906 15.4213 8.78125C7.12721 11.0312 0 21.8281 0 30.4219C0 35.7031 4.33625 40 9.67377 40H27.3341C32.6638 40 37.0079 35.7031 37.0079 30.4141C37 21.8281 29.8728 11.0312 21.5787 8.78125ZM11.8419 3.02344C11.6842 2.63281 11.8419 2.30469 11.9523 2.14844C12.1573 1.85156 12.4884 1.67188 12.8511 1.67188H24.1647C24.5195 1.67188 24.8585 1.85156 25.0635 2.14844C25.1739 2.30469 25.3316 2.63281 25.1739 3.02344C23.8493 6.32812 19.5604 7.94531 18.5118 8.29688C17.4475 7.94531 13.1743 6.33594 11.8419 3.02344ZM27.3341 38.3359H9.67377C5.26657 38.3359 1.68719 34.7812 1.68719 30.4219C1.67931 21.5 9.83934 10 18.5039 10C27.1686 10 35.3207 21.5 35.3207 30.4219C35.3207 34.7812 31.7334 38.3359 27.3341 38.3359ZM25.2291 28.9609C25.2291 31.375 23.2502 33.3359 20.814 33.3359H19.3475V35.8359C19.3475 36.2969 18.9691 36.6719 18.5039 36.6719C18.0388 36.6719 17.6603 36.2969 17.6603 35.8359V33.3359H16.0993C14.4515 33.3359 12.922 32.4609 12.0942 31.0469C11.8577 30.6484 11.9996 30.1406 12.4017 29.9062C12.8038 29.6719 13.3162 29.8125 13.5527 30.2109C14.081 31.1094 15.0586 31.6719 16.0993 31.6719H20.814C22.3198 31.6719 23.5498 30.4531 23.5498 28.9609C23.5498 27.625 22.58 26.5 21.2476 26.2891L15.4922 25.375C13.3399 25.0312 11.7788 23.2188 11.7788 21.0547C11.7788 18.6406 13.7577 16.6797 16.1939 16.6797H17.6603V14.1797C17.6603 13.7188 18.0388 13.3438 18.5039 13.3438C18.9691 13.3438 19.3475 13.7188 19.3475 14.1797V16.6797H20.9086C22.5564 16.6797 24.0859 17.5547 24.9137 18.9688C25.1502 19.3672 25.0083 19.875 24.6062 20.1094C24.2041 20.3359 23.6917 20.2031 23.4551 19.8047C22.9269 18.9062 21.9493 18.3438 20.9086 18.3438H16.2018C14.6959 18.3438 13.466 19.5625 13.466 21.0547C13.466 22.3906 14.4358 23.5156 15.7682 23.7266L21.5235 24.6406C23.668 24.9844 25.2291 26.7969 25.2291 28.9609Z" fill="white"/>
</svg>
